<mxfile host="65bd71144e">
    <diagram id="6a731a19-8d31-9384-78a2-239565b7b9f0" name="Map">
        <mxGraphModel dx="1540" dy="2340" grid="0" gridSize="20" guides="1" tooltips="1" connect="1" arrows="1" fold="1" page="1" pageScale="1" pageWidth="4681" pageHeight="3300" background="none" math="0" shadow="0">
            <root>
                <mxCell id="0"/>
                <mxCell id="1" parent="0"/>
                <mxCell id="1350" value="Click button" style="ellipse;whiteSpace=wrap;html=1;shadow=0;fontFamily=Helvetica;fontSize=12;fontColor=#000000;align=center;strokeWidth=3;fillColor=#1699D3;strokeColor=none;fontStyle=1" parent="1" vertex="1">
                    <mxGeometry x="1935" y="1074" width="120" height="120" as="geometry"/>
                </mxCell>
                <mxCell id="1351" value="Crypto exchenge" style="ellipse;whiteSpace=wrap;html=1;shadow=0;fontFamily=Helvetica;fontSize=12;fontColor=#000000;align=center;strokeWidth=3;fillColor=#F08705;strokeColor=none;gradientColor=none;fontStyle=1" parent="1" vertex="1">
                    <mxGeometry x="2254" y="994" width="120" height="120" as="geometry"/>
                </mxCell>
                <mxCell id="1352" value="Stats" style="ellipse;whiteSpace=wrap;html=1;shadow=0;fontFamily=Helvetica;fontSize=12;fontColor=#000000;align=center;strokeWidth=3;fillColor=#E85642;strokeColor=none;fontStyle=1" parent="1" vertex="1">
                    <mxGeometry x="2609" y="1079" width="120" height="120" as="geometry"/>
                </mxCell>
                <mxCell id="1353" value="Idle" style="ellipse;whiteSpace=wrap;html=1;shadow=0;fontFamily=Helvetica;fontSize=12;fontColor=#000000;align=center;strokeWidth=3;fillColor=#1699D3;strokeColor=none;fontStyle=1" parent="1" vertex="1">
                    <mxGeometry x="2824" y="1461.5" width="120" height="120" as="geometry"/>
                </mxCell>
                <mxCell id="1354" value="Events" style="ellipse;whiteSpace=wrap;html=1;shadow=0;fontFamily=Helvetica;fontSize=12;fontColor=#000000;align=center;strokeWidth=3;fillColor=#736ca8;strokeColor=none;fontStyle=1" parent="1" vertex="1">
                    <mxGeometry x="2738" y="1837" width="120" height="120" as="geometry"/>
                </mxCell>
                <mxCell id="1355" value="Achievements" style="ellipse;whiteSpace=wrap;html=1;shadow=0;fontFamily=Helvetica;fontSize=12;fontColor=#000000;align=center;strokeWidth=3;fillColor=#F08705;strokeColor=none;fontStyle=1" parent="1" vertex="1">
                    <mxGeometry x="2238" y="1936" width="152" height="152" as="geometry"/>
                </mxCell>
                <mxCell id="1356" value="Graphics &amp;amp; audio" style="ellipse;whiteSpace=wrap;html=1;shadow=0;fontFamily=Helvetica;fontSize=12;fontColor=#000000;align=center;strokeWidth=3;fillColor=#E85642;strokeColor=none;fontStyle=1" parent="1" vertex="1">
                    <mxGeometry x="1882" y="1826" width="120" height="120" as="geometry"/>
                </mxCell>
                <mxCell id="1359" style="endArrow=none;strokeWidth=6;strokeColor=#1699D3;html=1;fontColor=#000000;fontStyle=1;fontSize=12;" parent="1" source="1515" target="1350" edge="1">
                    <mxGeometry relative="1" as="geometry"/>
                </mxCell>
                <mxCell id="1360" style="endArrow=none;strokeWidth=6;strokeColor=#f08705;html=1;fontColor=#000000;fontStyle=1;fontSize=12;" parent="1" source="1515" target="1351" edge="1">
                    <mxGeometry relative="1" as="geometry"/>
                </mxCell>
                <mxCell id="1361" style="endArrow=none;strokeWidth=6;strokeColor=#E85642;html=1;fontColor=#000000;fontStyle=1;fontSize=12;" parent="1" source="1515" target="1352" edge="1">
                    <mxGeometry relative="1" as="geometry"/>
                </mxCell>
                <mxCell id="1362" style="endArrow=none;strokeWidth=6;strokeColor=#1699D3;html=1;fontColor=#000000;fontStyle=1;fontSize=12;" parent="1" source="1515" target="1353" edge="1">
                    <mxGeometry relative="1" as="geometry"/>
                </mxCell>
                <mxCell id="1363" style="endArrow=none;strokeWidth=6;strokeColor=#736CA8;html=1;fontColor=#000000;fontStyle=1;fontSize=12;" parent="1" source="1515" target="1516" edge="1">
                    <mxGeometry relative="1" as="geometry"/>
                </mxCell>
                <mxCell id="1364" style="endArrow=none;strokeWidth=6;strokeColor=#736ca8;html=1;fontColor=#000000;fontStyle=1;fontSize=12;" parent="1" source="1515" target="1354" edge="1">
                    <mxGeometry relative="1" as="geometry"/>
                </mxCell>
                <mxCell id="1365" value="" style="edgeStyle=none;endArrow=none;strokeWidth=6;strokeColor=#F08705;html=1;fontColor=#000000;fontStyle=1;fontSize=12;" parent="1" source="1515" target="1355" edge="1">
                    <mxGeometry x="181" y="226.5" width="100" height="100" as="geometry">
                        <mxPoint x="1391.5" y="1039" as="sourcePoint"/>
                        <mxPoint x="1491.5" y="939" as="targetPoint"/>
                    </mxGeometry>
                </mxCell>
                <mxCell id="1366" value="" style="edgeStyle=none;endArrow=none;strokeWidth=6;strokeColor=#E85642;html=1;fontColor=#000000;fontStyle=1;fontSize=12;" parent="1" source="1515" target="1356" edge="1">
                    <mxGeometry x="181" y="226.5" width="100" height="100" as="geometry">
                        <mxPoint x="1391.5" y="1039" as="sourcePoint"/>
                        <mxPoint x="1491.5" y="939" as="targetPoint"/>
                    </mxGeometry>
                </mxCell>
                <mxCell id="1369" value="&lt;font style=&quot;font-size: 12px;&quot;&gt;&lt;span style=&quot;font-size: 12px;&quot;&gt;Zarabianie dolarów (jako jakaś prosta praca)&lt;/span&gt;&lt;/font&gt;" style="rounded=1;fillColor=#64BBE2;strokeColor=none;strokeWidth=3;shadow=0;html=1;fontColor=#000000;fontStyle=1;fontSize=12;" parent="1" vertex="1">
                    <mxGeometry x="1462.25" y="1179" width="257" height="40" as="geometry"/>
                </mxCell>
                <mxCell id="1370" value="&lt;font style=&quot;font-size: 12px;&quot;&gt;&lt;span style=&quot;font-size: 12px;&quot;&gt;Później możliwość przebranżawiania się (większe zarobki)&lt;/span&gt;&lt;/font&gt;" style="rounded=1;fillColor=#64BBE2;strokeColor=none;strokeWidth=3;shadow=0;html=1;fontColor=#000000;fontStyle=1;fontSize=12;" parent="1" vertex="1">
                    <mxGeometry x="1368.75" y="1119" width="353.5" height="40" as="geometry"/>
                </mxCell>
                <mxCell id="1371" value="&lt;span style=&quot;font-size: 12px;&quot;&gt;&lt;font style=&quot;font-size: 12px;&quot;&gt;Upgrade'y guzika to zatrudnianie ludzi&lt;/font&gt;&lt;/span&gt;" style="rounded=1;fillColor=#64BBE2;strokeColor=none;strokeWidth=3;shadow=0;html=1;fontColor=#000000;fontStyle=1;fontSize=12;" parent="1" vertex="1">
                    <mxGeometry x="1462.25" y="1059" width="260" height="40" as="geometry"/>
                </mxCell>
                <mxCell id="1381" value="" style="edgeStyle=none;endArrow=none;strokeWidth=3;strokeColor=#64BBE2;html=1;fontColor=#000000;fontStyle=1;fontSize=12;" parent="1" source="1350" target="1369" edge="1">
                    <mxGeometry x="-221.5" y="56.5" width="100" height="100" as="geometry">
                        <mxPoint x="1355.75" y="944" as="sourcePoint"/>
                        <mxPoint x="1455.75" y="844" as="targetPoint"/>
                    </mxGeometry>
                </mxCell>
                <mxCell id="1382" value="" style="edgeStyle=none;endArrow=none;strokeWidth=3;strokeColor=#64BBE2;html=1;fontColor=#000000;fontStyle=1;fontSize=12;" parent="1" source="1350" target="1370" edge="1">
                    <mxGeometry x="-221.5" y="56.5" width="100" height="100" as="geometry">
                        <mxPoint x="1355.75" y="944" as="sourcePoint"/>
                        <mxPoint x="1455.75" y="844" as="targetPoint"/>
                    </mxGeometry>
                </mxCell>
                <mxCell id="1383" value="" style="edgeStyle=none;endArrow=none;strokeWidth=3;strokeColor=#64BBE2;html=1;fontColor=#000000;fontStyle=1;fontSize=12;" parent="1" source="1350" target="1371" edge="1">
                    <mxGeometry x="-221.5" y="56.5" width="100" height="100" as="geometry">
                        <mxPoint x="1355.75" y="944" as="sourcePoint"/>
                        <mxPoint x="1455.75" y="844" as="targetPoint"/>
                    </mxGeometry>
                </mxCell>
                <mxCell id="1391" value="&lt;span style=&quot;font-size: 12px;&quot;&gt;Wymiana dolarów na krypto - musi skutkować zyskami wzlędem trzymania dolarów&lt;/span&gt;" style="rounded=1;fillColor=#f5af58;strokeColor=none;strokeWidth=3;shadow=0;html=1;fontColor=#000000;whiteSpace=wrap;fontStyle=1;fontSize=12;" parent="1" vertex="1">
                    <mxGeometry x="1974" y="859" width="273.5" height="60" as="geometry"/>
                </mxCell>
                <mxCell id="1392" value="Kilka krypto - różne rodzaje" style="rounded=1;fillColor=#f5af58;strokeColor=none;strokeWidth=3;shadow=0;html=1;fontColor=#000000;fontStyle=1;fontSize=12;" parent="1" vertex="1">
                    <mxGeometry x="2218.75" y="788" width="203.5" height="40" as="geometry"/>
                </mxCell>
                <mxCell id="1393" value="Kursy tworzone jako kombinacja historii krypto i generowania" style="rounded=1;fillColor=#f5af58;strokeColor=none;strokeWidth=3;shadow=0;html=1;fontColor=#000000;whiteSpace=wrap;fontStyle=1;fontSize=12;" parent="1" vertex="1">
                    <mxGeometry x="2440.75" y="861.5" width="226.5" height="55" as="geometry"/>
                </mxCell>
                <mxCell id="1403" value="" style="edgeStyle=none;endArrow=none;strokeWidth=3;strokeColor=#F5AF58;html=1;fontColor=#000000;fontStyle=1;fontSize=12;" parent="1" source="1351" target="1391" edge="1">
                    <mxGeometry x="3.5" y="21.5" width="100" height="100" as="geometry">
                        <mxPoint x="1214" y="834" as="sourcePoint"/>
                        <mxPoint x="1314" y="734" as="targetPoint"/>
                    </mxGeometry>
                </mxCell>
                <mxCell id="1404" value="" style="edgeStyle=none;endArrow=none;strokeWidth=3;strokeColor=#F5AF58;html=1;fontColor=#000000;fontStyle=1;fontSize=12;" parent="1" source="1351" target="1392" edge="1">
                    <mxGeometry x="3.5" y="21.5" width="100" height="100" as="geometry">
                        <mxPoint x="1214" y="834" as="sourcePoint"/>
                        <mxPoint x="1314" y="734" as="targetPoint"/>
                    </mxGeometry>
                </mxCell>
                <mxCell id="1405" value="" style="edgeStyle=none;endArrow=none;strokeWidth=3;strokeColor=#F5AF58;html=1;fontColor=#000000;fontStyle=1;fontSize=12;" parent="1" source="1351" target="1393" edge="1">
                    <mxGeometry x="3.5" y="21.5" width="100" height="100" as="geometry">
                        <mxPoint x="1214" y="834" as="sourcePoint"/>
                        <mxPoint x="1314" y="734" as="targetPoint"/>
                    </mxGeometry>
                </mxCell>
                <mxCell id="1412" value="Stats - all time" style="rounded=1;fillColor=#f08e81;strokeColor=none;strokeWidth=3;shadow=0;html=1;fontColor=#000000;fontStyle=1;fontSize=12;" parent="1" vertex="1">
                    <mxGeometry x="2932.25" y="1194" width="139" height="40" as="geometry"/>
                </mxCell>
                <mxCell id="1417" value="Money history - chart" style="rounded=1;fillColor=#f08e81;strokeColor=none;strokeWidth=3;shadow=0;html=1;fontColor=#000000;fontStyle=1;fontSize=12;" parent="1" vertex="1">
                    <mxGeometry x="2932.25" y="964" width="139" height="40" as="geometry"/>
                </mxCell>
                <mxCell id="1418" value="Achievements" style="rounded=1;fillColor=#f08e81;strokeColor=none;strokeWidth=3;shadow=0;html=1;fontColor=#000000;fontStyle=1;fontSize=12;" parent="1" vertex="1">
                    <mxGeometry x="2932.25" y="1044" width="139" height="40" as="geometry"/>
                </mxCell>
                <mxCell id="1419" value="Stats - this game" style="rounded=1;fillColor=#f08e81;strokeColor=none;strokeWidth=3;shadow=0;html=1;fontColor=#000000;fontStyle=1;fontSize=12;" parent="1" vertex="1">
                    <mxGeometry x="2932.25" y="1119" width="139" height="40" as="geometry"/>
                </mxCell>
                <mxCell id="1428" value="" style="edgeStyle=none;endArrow=none;strokeWidth=3;strokeColor=#F08E81;html=1;fontColor=#000000;fontStyle=1;fontSize=12;" parent="1" source="1352" target="1417" edge="1">
                    <mxGeometry x="31" y="106.5" width="100" height="100" as="geometry">
                        <mxPoint x="1017.25" y="999" as="sourcePoint"/>
                        <mxPoint x="1117.25" y="899" as="targetPoint"/>
                    </mxGeometry>
                </mxCell>
                <mxCell id="1429" value="" style="edgeStyle=none;endArrow=none;strokeWidth=3;strokeColor=#F08E81;html=1;fontColor=#000000;fontStyle=1;fontSize=12;" parent="1" source="1352" target="1418" edge="1">
                    <mxGeometry x="31" y="106.5" width="100" height="100" as="geometry">
                        <mxPoint x="1017.25" y="999" as="sourcePoint"/>
                        <mxPoint x="1117.25" y="899" as="targetPoint"/>
                    </mxGeometry>
                </mxCell>
                <mxCell id="1430" value="" style="edgeStyle=none;endArrow=none;strokeWidth=3;strokeColor=#F08E81;html=1;fontColor=#000000;fontStyle=1;fontSize=12;" parent="1" source="1352" target="1419" edge="1">
                    <mxGeometry x="31" y="106.5" width="100" height="100" as="geometry">
                        <mxPoint x="1017.25" y="999" as="sourcePoint"/>
                        <mxPoint x="1117.25" y="899" as="targetPoint"/>
                    </mxGeometry>
                </mxCell>
                <mxCell id="1431" value="" style="edgeStyle=none;endArrow=none;strokeWidth=3;strokeColor=#F08E81;html=1;fontColor=#000000;fontStyle=1;fontSize=12;" parent="1" source="1352" target="1412" edge="1">
                    <mxGeometry x="31" y="106.5" width="100" height="100" as="geometry">
                        <mxPoint x="1017.25" y="999" as="sourcePoint"/>
                        <mxPoint x="1117.25" y="899" as="targetPoint"/>
                    </mxGeometry>
                </mxCell>
                <mxCell id="1438" value="Czas zakończenia sesji - wyliczenie przyrostu" style="rounded=1;fillColor=#64BBE2;strokeColor=none;strokeWidth=3;shadow=0;html=1;fontColor=#000000;fontStyle=1;whiteSpace=wrap;fontSize=12;" parent="1" vertex="1">
                    <mxGeometry x="3035.5" y="1409" width="220" height="40" as="geometry"/>
                </mxCell>
                <mxCell id="1440" value="Przyrost gdy offline - ograniczenia" style="rounded=1;fillColor=#64BBE2;strokeColor=none;strokeWidth=3;shadow=0;html=1;fontColor=#000000;fontStyle=1;fontSize=12;" parent="1" vertex="1">
                    <mxGeometry x="3035.5" y="1474" width="220" height="40" as="geometry"/>
                </mxCell>
                <mxCell id="1441" value="Jakieś specjalne prace gdy offline?" style="rounded=1;fillColor=#1ba1e2;strokeColor=#006EAF;strokeWidth=3;shadow=0;html=1;fontColor=#000000;fontStyle=1;fontSize=12;" parent="1" vertex="1">
                    <mxGeometry x="3034" y="1544" width="220" height="40" as="geometry"/>
                </mxCell>
                <mxCell id="1449" value="" style="edgeStyle=none;endArrow=none;strokeWidth=3;strokeColor=#64BBE2;html=1;fontColor=#000000;fontStyle=1;entryX=0;entryY=0.5;entryDx=0;entryDy=0;fontSize=12;" parent="1" source="1353" target="1438" edge="1">
                    <mxGeometry x="-24" y="196.5" width="100" height="100" as="geometry">
                        <mxPoint x="881.5" y="994" as="sourcePoint"/>
                        <mxPoint x="981.5" y="894" as="targetPoint"/>
                    </mxGeometry>
                </mxCell>
                <mxCell id="1451" value="" style="edgeStyle=none;endArrow=none;strokeWidth=3;strokeColor=#64BBE2;html=1;fontColor=#000000;fontStyle=1;entryX=0;entryY=0.5;entryDx=0;entryDy=0;fontSize=12;" parent="1" source="1353" target="1440" edge="1">
                    <mxGeometry x="-24" y="196.5" width="100" height="100" as="geometry">
                        <mxPoint x="881.5" y="994" as="sourcePoint"/>
                        <mxPoint x="981.5" y="894" as="targetPoint"/>
                    </mxGeometry>
                </mxCell>
                <mxCell id="1453" value="" style="edgeStyle=none;endArrow=none;strokeWidth=3;strokeColor=#006EAF;html=1;fontColor=#000000;fontStyle=1;fillColor=#1ba1e2;fontSize=12;" parent="1" source="1353" target="1441" edge="1">
                    <mxGeometry x="-24" y="196.5" width="100" height="100" as="geometry">
                        <mxPoint x="881.5" y="994" as="sourcePoint"/>
                        <mxPoint x="981.5" y="894" as="targetPoint"/>
                    </mxGeometry>
                </mxCell>
                <mxCell id="1460" value="Okresowe - kalendarzowe" style="rounded=1;fillColor=#a29dc5;strokeColor=none;strokeWidth=3;shadow=0;html=1;fontColor=#000000;fontStyle=1;fontSize=12;" parent="1" vertex="1">
                    <mxGeometry x="2993" y="1903" width="178" height="41" as="geometry"/>
                </mxCell>
                <mxCell id="1461" value="Powiązane z wydarzeniami na rynku" style="rounded=1;fillColor=#a29dc5;strokeColor=none;strokeWidth=3;shadow=0;html=1;fontColor=#000000;fontStyle=1;fontSize=12;" parent="1" vertex="1">
                    <mxGeometry x="2993" y="1968.5" width="225" height="43.5" as="geometry"/>
                </mxCell>
                <mxCell id="1463" value="" style="edgeStyle=none;endArrow=none;strokeWidth=3;strokeColor=#A29DC5;html=1;fontColor=#000000;fontStyle=1;fontSize=12;" parent="1" source="1354" target="1460" edge="1">
                    <mxGeometry x="251" y="-103.5" width="100" height="100" as="geometry">
                        <mxPoint x="1461.5" y="709" as="sourcePoint"/>
                        <mxPoint x="1561.5" y="609" as="targetPoint"/>
                    </mxGeometry>
                </mxCell>
                <mxCell id="1464" value="" style="edgeStyle=none;endArrow=none;strokeWidth=3;strokeColor=#A29DC5;html=1;fontColor=#000000;fontStyle=1;entryX=0;entryY=0;entryDx=0;entryDy=0;fontSize=12;" parent="1" source="1354" target="1461" edge="1">
                    <mxGeometry x="251" y="-103.5" width="100" height="100" as="geometry">
                        <mxPoint x="1461.5" y="709" as="sourcePoint"/>
                        <mxPoint x="1561.5" y="609" as="targetPoint"/>
                    </mxGeometry>
                </mxCell>
                <mxCell id="1472" value="Różne ścieżki osiągnięć - w czasie jednej gry nie da się osiągnąć wszystkich (drzewko)" style="rounded=1;fillColor=#f5af58;strokeColor=none;strokeWidth=3;shadow=0;html=1;fontColor=#000000;fontStyle=1;whiteSpace=wrap;fontSize=12;" parent="1" vertex="1">
                    <mxGeometry x="2456" y="2139" width="185" height="66" as="geometry"/>
                </mxCell>
                <mxCell id="1473" value="Odblokowywanie upgrade'ów i fabuły przez osiągnięcia" style="rounded=1;fillColor=#f5af58;strokeColor=none;strokeWidth=3;shadow=0;html=1;fontColor=#000000;fontStyle=1;whiteSpace=wrap;fontSize=12;" parent="1" vertex="1">
                    <mxGeometry x="2002" y="2139" width="167" height="64" as="geometry"/>
                </mxCell>
                <mxCell id="1474" value="Różne rodzaje osiągnięć" style="rounded=1;fillColor=#f5af58;strokeColor=none;strokeWidth=3;shadow=0;html=1;fontColor=#000000;fontStyle=1;whiteSpace=wrap;fontSize=12;" parent="1" vertex="1">
                    <mxGeometry x="2252.25" y="2161" width="120" height="40" as="geometry"/>
                </mxCell>
                <mxCell id="1484" value="" style="edgeStyle=none;endArrow=none;strokeWidth=3;strokeColor=#F5AF58;html=1;fontColor=#000000;fontStyle=1;fontSize=12;" parent="1" source="1355" target="1472" edge="1">
                    <mxGeometry x="243.5" y="39" width="100" height="100" as="geometry">
                        <mxPoint x="1454" y="851.5" as="sourcePoint"/>
                        <mxPoint x="1554" y="751.5" as="targetPoint"/>
                    </mxGeometry>
                </mxCell>
                <mxCell id="1485" value="" style="edgeStyle=none;endArrow=none;strokeWidth=3;strokeColor=#F5AF58;html=1;fontColor=#000000;fontStyle=1;fontSize=12;" parent="1" source="1355" target="1473" edge="1">
                    <mxGeometry x="243.5" y="39" width="100" height="100" as="geometry">
                        <mxPoint x="1454" y="851.5" as="sourcePoint"/>
                        <mxPoint x="1554" y="751.5" as="targetPoint"/>
                    </mxGeometry>
                </mxCell>
                <mxCell id="1486" value="" style="edgeStyle=none;endArrow=none;strokeWidth=3;strokeColor=#F5AF58;html=1;fontColor=#000000;fontStyle=1;fontSize=12;" parent="1" source="1355" target="1474" edge="1">
                    <mxGeometry x="243.5" y="39" width="100" height="100" as="geometry">
                        <mxPoint x="1454" y="851.5" as="sourcePoint"/>
                        <mxPoint x="1554" y="751.5" as="targetPoint"/>
                    </mxGeometry>
                </mxCell>
                <mxCell id="1497" value="Generowanie grafiki" style="rounded=1;fillColor=#f08e81;strokeColor=none;strokeWidth=3;shadow=0;html=1;fontColor=#000000;fontStyle=1;fontSize=12;" parent="1" vertex="1">
                    <mxGeometry x="1615" y="1869" width="149" height="40" as="geometry"/>
                </mxCell>
                <mxCell id="1498" value="Dźwięki generowane przez AI oraz darmowe" style="rounded=1;fillColor=#f08e81;strokeColor=none;strokeWidth=3;shadow=0;html=1;fontColor=#000000;fontStyle=1;whiteSpace=wrap;fontSize=12;" parent="1" vertex="1">
                    <mxGeometry x="1599" y="1968.5" width="165" height="53" as="geometry"/>
                </mxCell>
                <mxCell id="1499" value="Orchid" style="rounded=1;fillColor=#f08e81;strokeColor=none;strokeWidth=3;shadow=0;html=1;fontColor=#000000;fontStyle=1;fontSize=12;" parent="1" vertex="1">
                    <mxGeometry x="1644" y="2081" width="120" height="40" as="geometry"/>
                </mxCell>
                <mxCell id="1510" value="" style="edgeStyle=none;endArrow=none;strokeWidth=3;strokeColor=#F08E81;html=1;fontColor=#000000;fontStyle=1;fontSize=12;" parent="1" source="1356" target="1497" edge="1">
                    <mxGeometry x="188.5" y="51.5" width="100" height="100" as="geometry">
                        <mxPoint x="1512" y="806" as="sourcePoint"/>
                        <mxPoint x="1612" y="706" as="targetPoint"/>
                    </mxGeometry>
                </mxCell>
                <mxCell id="1511" value="" style="edgeStyle=none;endArrow=none;strokeWidth=3;strokeColor=#F08E81;html=1;fontColor=#000000;fontStyle=1;fontSize=12;" parent="1" source="1356" target="1498" edge="1">
                    <mxGeometry x="188.5" y="51.5" width="100" height="100" as="geometry">
                        <mxPoint x="1512" y="806" as="sourcePoint"/>
                        <mxPoint x="1612" y="706" as="targetPoint"/>
                    </mxGeometry>
                </mxCell>
                <mxCell id="1512" value="" style="edgeStyle=none;endArrow=none;strokeWidth=3;strokeColor=#F08E81;html=1;fontColor=#000000;fontStyle=1;entryX=1;entryY=0;entryDx=0;entryDy=0;fontSize=12;" parent="1" source="1356" target="1499" edge="1">
                    <mxGeometry x="188.5" y="51.5" width="100" height="100" as="geometry">
                        <mxPoint x="1512" y="806" as="sourcePoint"/>
                        <mxPoint x="1612" y="706" as="targetPoint"/>
                    </mxGeometry>
                </mxCell>
                <mxCell id="1515" value="&lt;font style=&quot;font-size: 28px;&quot;&gt;Crypto Clicker&lt;/font&gt;" style="ellipse;whiteSpace=wrap;html=1;shadow=0;fontFamily=Helvetica;fontSize=12;fontColor=#000000;align=center;strokeColor=#2F5B7C;strokeWidth=6;fillColor=#FFFFFF;fontStyle=1;gradientColor=none;" parent="1" vertex="1">
                    <mxGeometry x="2171.5" y="1389" width="270" height="270" as="geometry"/>
                </mxCell>
                <mxCell id="1516" value="Buyables" style="ellipse;whiteSpace=wrap;html=1;shadow=0;fontFamily=Helvetica;fontSize=12;fontColor=#000000;align=center;strokeWidth=3;fillColor=#736ca8;strokeColor=none;fontStyle=1" parent="1" vertex="1">
                    <mxGeometry x="1726" y="1464" width="120" height="120" as="geometry"/>
                </mxCell>
                <mxCell id="1517" value="Koparki (BTC)" style="rounded=1;fillColor=#a29dc5;strokeColor=none;strokeWidth=3;shadow=0;html=1;fontColor=#000000;fontStyle=1;fontSize=12;" parent="1" vertex="1">
                    <mxGeometry x="1454" y="1394" width="120" height="40" as="geometry"/>
                </mxCell>
                <mxCell id="1522" value="Elektrownie" style="rounded=1;fillColor=#a29dc5;strokeColor=none;strokeWidth=3;shadow=0;html=1;fontColor=#000000;fontStyle=1;fontSize=12;" parent="1" vertex="1">
                    <mxGeometry x="1454" y="1464" width="120" height="40" as="geometry"/>
                </mxCell>
                <mxCell id="1527" value="&lt;span style=&quot;font-size: 12px;&quot;&gt;Upgrade'y wszystkiego&lt;/span&gt;" style="rounded=1;fillColor=#6a00ff;strokeColor=#3700CC;strokeWidth=3;shadow=0;html=1;fontColor=#000000;fontStyle=1;fontSize=12;" parent="1" vertex="1">
                    <mxGeometry x="1424" y="1662.5" width="150" height="40" as="geometry"/>
                </mxCell>
                <mxCell id="1528" value="" style="edgeStyle=none;endArrow=none;strokeWidth=3;strokeColor=#A29DC5;html=1;fontColor=#000000;fontStyle=1;fontSize=12;" parent="1" source="1516" target="1517" edge="1">
                    <mxGeometry x="-1498" y="-303.5" width="100" height="100" as="geometry">
                        <mxPoint x="-84" y="539" as="sourcePoint"/>
                        <mxPoint x="16" y="439" as="targetPoint"/>
                    </mxGeometry>
                </mxCell>
                <mxCell id="1529" value="Szkolenia (rozwój) - przebranżawianie" style="rounded=1;fillColor=#a29dc5;strokeColor=none;strokeWidth=3;shadow=0;html=1;fontColor=#000000;fontStyle=1;fontSize=12;" parent="1" vertex="1">
                    <mxGeometry x="1354" y="1594" width="220" height="40" as="geometry"/>
                </mxCell>
                <mxCell id="1534" value="" style="edgeStyle=none;endArrow=none;strokeWidth=3;strokeColor=#A29DC5;html=1;fontColor=#000000;fontStyle=1;fontSize=12;" parent="1" source="1516" target="1522" edge="1">
                    <mxGeometry x="-1498" y="-303.5" width="100" height="100" as="geometry">
                        <mxPoint x="-84" y="539" as="sourcePoint"/>
                        <mxPoint x="16" y="439" as="targetPoint"/>
                    </mxGeometry>
                </mxCell>
                <mxCell id="1539" value="" style="edgeStyle=none;endArrow=none;strokeWidth=3;strokeColor=#3700CC;html=1;fillColor=#6a00ff;fontColor=#000000;fontStyle=1;entryX=1;entryY=0;entryDx=0;entryDy=0;fontSize=12;" parent="1" source="1516" target="1527" edge="1">
                    <mxGeometry x="-1498" y="-303.5" width="100" height="100" as="geometry">
                        <mxPoint x="-84" y="539" as="sourcePoint"/>
                        <mxPoint x="16" y="439" as="targetPoint"/>
                    </mxGeometry>
                </mxCell>
                <mxCell id="1540" value="" style="edgeStyle=none;endArrow=none;strokeWidth=3;strokeColor=#A29DC5;html=1;fontColor=#000000;fontStyle=1;entryX=1;entryY=0;entryDx=0;entryDy=0;fontSize=12;" parent="1" source="1516" target="1529" edge="1">
                    <mxGeometry x="-1498" y="-303.5" width="100" height="100" as="geometry">
                        <mxPoint x="-84" y="539" as="sourcePoint"/>
                        <mxPoint x="16" y="439" as="targetPoint"/>
                    </mxGeometry>
                </mxCell>
                <mxCell id="1542" style="edgeStyle=none;rounded=0;html=1;exitX=0.5;exitY=1;endArrow=none;endFill=0;jettySize=auto;orthogonalLoop=1;strokeColor=#736CA8;strokeWidth=2;fillColor=#64bbe2;fontSize=12;fontColor=#000000;fontStyle=1" parent="1" source="1529" target="1529" edge="1">
                    <mxGeometry relative="1" as="geometry"/>
                </mxCell>
                <mxCell id="RgzGfIZMFBr-IAiuyJZ1-1544" value="Wiatrowe" style="rounded=1;whiteSpace=wrap;html=1;fillColor=#a29dc5;strokeColor=none;fontColor=#000000;strokeWidth=3;shadow=0;fontStyle=1;fontSize=12;" parent="1" vertex="1">
                    <mxGeometry x="1204" y="1404" width="120" height="35" as="geometry"/>
                </mxCell>
                <mxCell id="RgzGfIZMFBr-IAiuyJZ1-1545" value="Węglowe" style="rounded=1;whiteSpace=wrap;html=1;fillColor=#a29dc5;strokeColor=none;fontColor=#000000;strokeWidth=3;shadow=0;fontStyle=1;fontSize=12;" parent="1" vertex="1">
                    <mxGeometry x="1204" y="1454" width="120" height="35" as="geometry"/>
                </mxCell>
                <mxCell id="RgzGfIZMFBr-IAiuyJZ1-1546" value="Wodne" style="rounded=1;whiteSpace=wrap;html=1;fillColor=#a29dc5;strokeColor=none;fontColor=#000000;strokeWidth=3;shadow=0;fontStyle=1;fontSize=12;" parent="1" vertex="1">
                    <mxGeometry x="1204" y="1504" width="120" height="35" as="geometry"/>
                </mxCell>
                <mxCell id="RgzGfIZMFBr-IAiuyJZ1-1550" value="" style="endArrow=none;html=1;rounded=1;strokeColor=#A29DC5;strokeWidth=3;entryX=0;entryY=0.25;entryDx=0;entryDy=0;exitX=1;exitY=0.5;exitDx=0;exitDy=0;fontColor=#000000;fontStyle=1;fontSize=12;" parent="1" source="RgzGfIZMFBr-IAiuyJZ1-1544" target="1522" edge="1">
                    <mxGeometry width="50" height="50" relative="1" as="geometry">
                        <mxPoint x="1354" y="1469" as="sourcePoint"/>
                        <mxPoint x="1404" y="1419" as="targetPoint"/>
                    </mxGeometry>
                </mxCell>
                <mxCell id="RgzGfIZMFBr-IAiuyJZ1-1551" value="" style="endArrow=none;html=1;rounded=1;strokeColor=#A29DC5;strokeWidth=3;entryX=0;entryY=0.5;entryDx=0;entryDy=0;exitX=1;exitY=0.5;exitDx=0;exitDy=0;fontColor=#000000;fontStyle=1;fontSize=12;" parent="1" source="RgzGfIZMFBr-IAiuyJZ1-1545" target="1522" edge="1">
                    <mxGeometry width="50" height="50" relative="1" as="geometry">
                        <mxPoint x="1364" y="1464" as="sourcePoint"/>
                        <mxPoint x="1457.5" y="1526" as="targetPoint"/>
                    </mxGeometry>
                </mxCell>
                <mxCell id="RgzGfIZMFBr-IAiuyJZ1-1552" value="" style="endArrow=none;html=1;rounded=1;strokeColor=#A29DC5;strokeWidth=3;entryX=0;entryY=0.75;entryDx=0;entryDy=0;exitX=1;exitY=0.5;exitDx=0;exitDy=0;fontColor=#000000;fontStyle=1;fontSize=12;" parent="1" source="RgzGfIZMFBr-IAiuyJZ1-1546" target="1522" edge="1">
                    <mxGeometry width="50" height="50" relative="1" as="geometry">
                        <mxPoint x="1314" y="1458" as="sourcePoint"/>
                        <mxPoint x="1444" y="1510" as="targetPoint"/>
                    </mxGeometry>
                </mxCell>
                <mxCell id="RgzGfIZMFBr-IAiuyJZ1-1554" value="Różne rodzaje - odblokowywanie coraz lepszych" style="rounded=1;whiteSpace=wrap;html=1;fillColor=#a29dc5;strokeColor=none;fontColor=#000000;strokeWidth=3;shadow=0;fontStyle=1;fontSize=12;" parent="1" vertex="1">
                    <mxGeometry x="1287.25" y="1289" width="206.75" height="35" as="geometry"/>
                </mxCell>
                <mxCell id="RgzGfIZMFBr-IAiuyJZ1-1556" value="" style="endArrow=none;html=1;rounded=1;strokeColor=#A29DC5;strokeWidth=3;entryX=0.25;entryY=0;entryDx=0;entryDy=0;exitX=0.5;exitY=1;exitDx=0;exitDy=0;fontColor=#000000;fontStyle=1;fontSize=12;" parent="1" source="RgzGfIZMFBr-IAiuyJZ1-1554" target="1517" edge="1">
                    <mxGeometry width="50" height="50" relative="1" as="geometry">
                        <mxPoint x="1334" y="1432" as="sourcePoint"/>
                        <mxPoint x="1464" y="1484" as="targetPoint"/>
                    </mxGeometry>
                </mxCell>
                <mxCell id="RgzGfIZMFBr-IAiuyJZ1-1557" value="BTC, ETH, XRP" style="rounded=1;fillColor=#f5af58;strokeColor=none;strokeWidth=3;shadow=0;html=1;fontColor=#000000;fontStyle=1;fontSize=12;" parent="1" vertex="1">
                    <mxGeometry x="1987.25" y="698" width="150" height="40" as="geometry"/>
                </mxCell>
                <mxCell id="RgzGfIZMFBr-IAiuyJZ1-1558" value="Parę krypto AI" style="rounded=1;fillColor=#f5af58;strokeColor=none;strokeWidth=3;shadow=0;html=1;fontColor=#000000;fontStyle=1;fontSize=12;" parent="1" vertex="1">
                    <mxGeometry x="2245.5" y="528" width="150" height="40" as="geometry"/>
                </mxCell>
                <mxCell id="RgzGfIZMFBr-IAiuyJZ1-1559" value="Metaverse" style="rounded=1;fillColor=#f5af58;strokeColor=none;strokeWidth=3;shadow=0;html=1;fontColor=#000000;fontStyle=1;fontSize=12;" parent="1" vertex="1">
                    <mxGeometry x="2517.25" y="698" width="150" height="40" as="geometry"/>
                </mxCell>
                <mxCell id="RgzGfIZMFBr-IAiuyJZ1-1560" value="Meme" style="rounded=1;fillColor=#f5af58;strokeColor=none;strokeWidth=3;shadow=0;html=1;fontColor=#000000;fontStyle=1;fontSize=12;" parent="1" vertex="1">
                    <mxGeometry x="2402.25" y="588" width="150" height="40" as="geometry"/>
                </mxCell>
                <mxCell id="RgzGfIZMFBr-IAiuyJZ1-1561" value="Gaming" style="rounded=1;fillColor=#f5af58;strokeColor=none;strokeWidth=3;shadow=0;html=1;fontColor=#000000;fontStyle=1;fontSize=12;" parent="1" vertex="1">
                    <mxGeometry x="2072.25" y="588" width="150" height="40" as="geometry"/>
                </mxCell>
                <mxCell id="RgzGfIZMFBr-IAiuyJZ1-1562" value="" style="edgeStyle=none;endArrow=none;strokeWidth=3;strokeColor=#F5AF58;html=1;entryX=1;entryY=1;entryDx=0;entryDy=0;exitX=0.25;exitY=0;exitDx=0;exitDy=0;fontColor=#000000;fontStyle=1;fontSize=12;" parent="1" source="1392" target="RgzGfIZMFBr-IAiuyJZ1-1557" edge="1">
                    <mxGeometry x="3.5" y="21.5" width="100" height="100" as="geometry">
                        <mxPoint x="2332.75" y="1038" as="sourcePoint"/>
                        <mxPoint x="2330.75" y="888" as="targetPoint"/>
                    </mxGeometry>
                </mxCell>
                <mxCell id="RgzGfIZMFBr-IAiuyJZ1-1564" value="" style="edgeStyle=none;endArrow=none;strokeWidth=3;strokeColor=#F5AF58;html=1;entryX=0.75;entryY=1;entryDx=0;entryDy=0;exitX=0.393;exitY=0;exitDx=0;exitDy=0;exitPerimeter=0;fontColor=#000000;fontStyle=1;fontSize=12;" parent="1" source="1392" target="RgzGfIZMFBr-IAiuyJZ1-1561" edge="1">
                    <mxGeometry x="3.5" y="21.5" width="100" height="100" as="geometry">
                        <mxPoint x="2321.5" y="778" as="sourcePoint"/>
                        <mxPoint x="2319.5" y="628" as="targetPoint"/>
                    </mxGeometry>
                </mxCell>
                <mxCell id="RgzGfIZMFBr-IAiuyJZ1-1565" value="" style="edgeStyle=none;endArrow=none;strokeWidth=3;strokeColor=#F5AF58;html=1;entryX=0.5;entryY=1;entryDx=0;entryDy=0;exitX=0.5;exitY=0;exitDx=0;exitDy=0;fontColor=#000000;fontStyle=1;fontSize=12;" parent="1" source="1392" target="RgzGfIZMFBr-IAiuyJZ1-1558" edge="1">
                    <mxGeometry x="3.5" y="21.5" width="100" height="100" as="geometry">
                        <mxPoint x="2352.75" y="1058" as="sourcePoint"/>
                        <mxPoint x="2350.75" y="908" as="targetPoint"/>
                    </mxGeometry>
                </mxCell>
                <mxCell id="RgzGfIZMFBr-IAiuyJZ1-1566" value="" style="edgeStyle=none;endArrow=none;strokeWidth=3;strokeColor=#F5AF58;html=1;entryX=0.25;entryY=1;entryDx=0;entryDy=0;exitX=0.75;exitY=0;exitDx=0;exitDy=0;fontColor=#000000;fontStyle=1;fontSize=12;" parent="1" source="1392" target="RgzGfIZMFBr-IAiuyJZ1-1560" edge="1">
                    <mxGeometry x="3.5" y="21.5" width="100" height="100" as="geometry">
                        <mxPoint x="2362.75" y="1068" as="sourcePoint"/>
                        <mxPoint x="2360.75" y="918" as="targetPoint"/>
                    </mxGeometry>
                </mxCell>
                <mxCell id="RgzGfIZMFBr-IAiuyJZ1-1567" value="" style="edgeStyle=none;endArrow=none;strokeWidth=3;strokeColor=#F5AF58;html=1;entryX=0;entryY=1;entryDx=0;entryDy=0;exitX=0.885;exitY=0.008;exitDx=0;exitDy=0;exitPerimeter=0;fontColor=#000000;fontStyle=1;fontSize=12;" parent="1" source="1392" target="RgzGfIZMFBr-IAiuyJZ1-1559" edge="1">
                    <mxGeometry x="3.5" y="21.5" width="100" height="100" as="geometry">
                        <mxPoint x="2548.75" y="828" as="sourcePoint"/>
                        <mxPoint x="2370.75" y="928" as="targetPoint"/>
                    </mxGeometry>
                </mxCell>
                <mxCell id="RgzGfIZMFBr-IAiuyJZ1-1568" value="Max money, max each crypto" style="rounded=1;fillColor=#f08e81;strokeColor=none;strokeWidth=3;shadow=0;html=1;fontColor=#000000;fontStyle=1;fontSize=12;" parent="1" vertex="1">
                    <mxGeometry x="3171.25" y="1079" width="200" height="40" as="geometry"/>
                </mxCell>
                <mxCell id="RgzGfIZMFBr-IAiuyJZ1-1569" value="Time started, money/min" style="rounded=1;fillColor=#f08e81;strokeColor=none;strokeWidth=3;shadow=0;html=1;fontColor=#000000;fontStyle=1;fontSize=12;" parent="1" vertex="1">
                    <mxGeometry x="3171.25" y="1134" width="200" height="40" as="geometry"/>
                </mxCell>
                <mxCell id="RgzGfIZMFBr-IAiuyJZ1-1570" value="Max money/tick, max money/click" style="rounded=1;fillColor=#f08e81;strokeColor=none;strokeWidth=3;shadow=0;html=1;fontColor=#000000;fontStyle=1;fontSize=12;" parent="1" vertex="1">
                    <mxGeometry x="3171.25" y="1189" width="200" height="40" as="geometry"/>
                </mxCell>
                <mxCell id="RgzGfIZMFBr-IAiuyJZ1-1571" value="Max money/tick, max money/click" style="rounded=1;fillColor=#f08e81;strokeColor=none;strokeWidth=3;shadow=0;html=1;fontColor=#000000;fontStyle=1;fontSize=12;" parent="1" vertex="1">
                    <mxGeometry x="3171.25" y="1249" width="200" height="40" as="geometry"/>
                </mxCell>
                <mxCell id="RgzGfIZMFBr-IAiuyJZ1-1572" value="&lt;span style=&quot;font-size: 12px;&quot;&gt;Specials&lt;/span&gt; - kosmos, wehikuł czasu, energia z jądra ziemi, kosmosu" style="rounded=1;fillColor=#a29dc5;strokeColor=none;strokeWidth=3;shadow=0;html=1;fontColor=#000000;whiteSpace=wrap;fontStyle=1;fontSize=12;" parent="1" vertex="1">
                    <mxGeometry x="1354" y="1529" width="220" height="40" as="geometry"/>
                </mxCell>
                <mxCell id="RgzGfIZMFBr-IAiuyJZ1-1573" value="" style="edgeStyle=none;endArrow=none;strokeWidth=3;strokeColor=#A29DC5;html=1;entryX=0.998;entryY=0.39;entryDx=0;entryDy=0;entryPerimeter=0;fontColor=#000000;fontStyle=1;fontSize=12;" parent="1" source="1516" target="RgzGfIZMFBr-IAiuyJZ1-1572" edge="1">
                    <mxGeometry x="-1498" y="-303.5" width="100" height="100" as="geometry">
                        <mxPoint x="1710.5" y="1544" as="sourcePoint"/>
                        <mxPoint x="1584.5" y="1554" as="targetPoint"/>
                    </mxGeometry>
                </mxCell>
                <mxCell id="RgzGfIZMFBr-IAiuyJZ1-1574" value="" style="edgeStyle=none;endArrow=none;strokeWidth=3;strokeColor=#F08E81;html=1;fontColor=#000000;fontStyle=1;exitX=1;exitY=0.5;exitDx=0;exitDy=0;entryX=0;entryY=0.5;entryDx=0;entryDy=0;fontSize=12;" parent="1" source="1419" target="RgzGfIZMFBr-IAiuyJZ1-1568" edge="1">
                    <mxGeometry x="31" y="106.5" width="100" height="100" as="geometry">
                        <mxPoint x="2796.25" y="1118" as="sourcePoint"/>
                        <mxPoint x="2942.25" y="1139" as="targetPoint"/>
                    </mxGeometry>
                </mxCell>
                <mxCell id="RgzGfIZMFBr-IAiuyJZ1-1575" value="" style="edgeStyle=none;endArrow=none;strokeWidth=3;strokeColor=#F08E81;html=1;fontColor=#000000;fontStyle=1;exitX=1;exitY=0.5;exitDx=0;exitDy=0;entryX=0;entryY=0.5;entryDx=0;entryDy=0;fontSize=12;" parent="1" source="1419" target="RgzGfIZMFBr-IAiuyJZ1-1569" edge="1">
                    <mxGeometry x="31" y="106.5" width="100" height="100" as="geometry">
                        <mxPoint x="3081.25" y="1149" as="sourcePoint"/>
                        <mxPoint x="3181.25" y="1109" as="targetPoint"/>
                    </mxGeometry>
                </mxCell>
                <mxCell id="RgzGfIZMFBr-IAiuyJZ1-1576" value="" style="edgeStyle=none;endArrow=none;strokeWidth=3;strokeColor=#F08E81;html=1;fontColor=#000000;fontStyle=1;exitX=1;exitY=0.5;exitDx=0;exitDy=0;entryX=0;entryY=0.5;entryDx=0;entryDy=0;fontSize=12;" parent="1" source="1419" target="RgzGfIZMFBr-IAiuyJZ1-1570" edge="1">
                    <mxGeometry x="31" y="106.5" width="100" height="100" as="geometry">
                        <mxPoint x="3081.25" y="1149" as="sourcePoint"/>
                        <mxPoint x="3181.25" y="1164" as="targetPoint"/>
                    </mxGeometry>
                </mxCell>
                <mxCell id="RgzGfIZMFBr-IAiuyJZ1-1577" value="" style="edgeStyle=none;endArrow=none;strokeWidth=3;strokeColor=#F08E81;html=1;fontColor=#000000;fontStyle=1;exitX=1;exitY=0.5;exitDx=0;exitDy=0;entryX=0;entryY=0.5;entryDx=0;entryDy=0;fontSize=12;" parent="1" source="1419" target="RgzGfIZMFBr-IAiuyJZ1-1571" edge="1">
                    <mxGeometry x="31" y="106.5" width="100" height="100" as="geometry">
                        <mxPoint x="3081.25" y="1149" as="sourcePoint"/>
                        <mxPoint x="3181.25" y="1219" as="targetPoint"/>
                    </mxGeometry>
                </mxCell>
                <mxCell id="RgzGfIZMFBr-IAiuyJZ1-1578" value="" style="edgeStyle=none;endArrow=none;strokeWidth=3;strokeColor=#F08E81;html=1;fontColor=#000000;fontStyle=1;exitX=1;exitY=0.5;exitDx=0;exitDy=0;entryX=0;entryY=0.5;entryDx=0;entryDy=0;fontSize=12;" parent="1" source="1412" target="RgzGfIZMFBr-IAiuyJZ1-1568" edge="1">
                    <mxGeometry x="31" y="106.5" width="100" height="100" as="geometry">
                        <mxPoint x="3091.25" y="1159" as="sourcePoint"/>
                        <mxPoint x="3191.25" y="1229" as="targetPoint"/>
                    </mxGeometry>
                </mxCell>
                <mxCell id="RgzGfIZMFBr-IAiuyJZ1-1579" value="" style="edgeStyle=none;endArrow=none;strokeWidth=3;strokeColor=#F08E81;html=1;fontColor=#000000;fontStyle=1;exitX=1;exitY=0.5;exitDx=0;exitDy=0;entryX=0;entryY=0.5;entryDx=0;entryDy=0;fontSize=12;" parent="1" source="1412" target="RgzGfIZMFBr-IAiuyJZ1-1569" edge="1">
                    <mxGeometry x="31" y="106.5" width="100" height="100" as="geometry">
                        <mxPoint x="3081.25" y="1224" as="sourcePoint"/>
                        <mxPoint x="3181.25" y="1109" as="targetPoint"/>
                    </mxGeometry>
                </mxCell>
                <mxCell id="RgzGfIZMFBr-IAiuyJZ1-1580" value="" style="edgeStyle=none;endArrow=none;strokeWidth=3;strokeColor=#F08E81;html=1;fontColor=#000000;fontStyle=1;exitX=1;exitY=0.5;exitDx=0;exitDy=0;entryX=0;entryY=0.5;entryDx=0;entryDy=0;fontSize=12;" parent="1" source="1412" target="RgzGfIZMFBr-IAiuyJZ1-1570" edge="1">
                    <mxGeometry x="31" y="106.5" width="100" height="100" as="geometry">
                        <mxPoint x="3091.25" y="1234" as="sourcePoint"/>
                        <mxPoint x="3191.25" y="1119" as="targetPoint"/>
                    </mxGeometry>
                </mxCell>
                <mxCell id="RgzGfIZMFBr-IAiuyJZ1-1581" value="" style="edgeStyle=none;endArrow=none;strokeWidth=3;strokeColor=#F08E81;html=1;fontColor=#000000;fontStyle=1;exitX=1;exitY=0.5;exitDx=0;exitDy=0;entryX=0;entryY=0.5;entryDx=0;entryDy=0;fontSize=12;" parent="1" source="1412" target="RgzGfIZMFBr-IAiuyJZ1-1571" edge="1">
                    <mxGeometry x="31" y="106.5" width="100" height="100" as="geometry">
                        <mxPoint x="3101.25" y="1244" as="sourcePoint"/>
                        <mxPoint x="3201.25" y="1129" as="targetPoint"/>
                    </mxGeometry>
                </mxCell>
                <mxCell id="RgzGfIZMFBr-IAiuyJZ1-1582" value="Max czas działania trybu offline - (upgrade)" style="rounded=1;fillColor=#64BBE2;strokeColor=none;strokeWidth=3;shadow=0;html=1;fontColor=#000000;fontStyle=1;whiteSpace=wrap;fontSize=12;" parent="1" vertex="1">
                    <mxGeometry x="3365.5" y="1419" width="220" height="40" as="geometry"/>
                </mxCell>
                <mxCell id="RgzGfIZMFBr-IAiuyJZ1-1583" value="% przytostu gdy offline&amp;nbsp;- (upgrade)" style="rounded=1;fillColor=#64BBE2;strokeColor=none;strokeWidth=3;shadow=0;html=1;fontColor=#000000;fontStyle=1;whiteSpace=wrap;fontSize=12;" parent="1" vertex="1">
                    <mxGeometry x="3365.5" y="1474" width="220" height="40" as="geometry"/>
                </mxCell>
                <mxCell id="RgzGfIZMFBr-IAiuyJZ1-1584" value="Niektóre rzeczy off gdy offline&amp;nbsp;- (upgrade)" style="rounded=1;fillColor=#64BBE2;strokeColor=none;strokeWidth=3;shadow=0;html=1;fontColor=#000000;fontStyle=1;whiteSpace=wrap;fontSize=12;" parent="1" vertex="1">
                    <mxGeometry x="3365.5" y="1529" width="220" height="40" as="geometry"/>
                </mxCell>
                <mxCell id="RgzGfIZMFBr-IAiuyJZ1-1585" value="" style="edgeStyle=none;endArrow=none;strokeWidth=3;strokeColor=#64BBE2;html=1;fontColor=#000000;fontStyle=1;entryX=0;entryY=0.5;entryDx=0;entryDy=0;exitX=1;exitY=0.5;exitDx=0;exitDy=0;fontSize=12;" parent="1" source="1440" target="RgzGfIZMFBr-IAiuyJZ1-1582" edge="1">
                    <mxGeometry x="-24" y="196.5" width="100" height="100" as="geometry">
                        <mxPoint x="2964.5" y="1546" as="sourcePoint"/>
                        <mxPoint x="3045.5" y="1504" as="targetPoint"/>
                    </mxGeometry>
                </mxCell>
                <mxCell id="RgzGfIZMFBr-IAiuyJZ1-1586" value="" style="edgeStyle=none;endArrow=none;strokeWidth=3;strokeColor=#64BBE2;html=1;fontColor=#000000;fontStyle=1;entryX=0;entryY=0.5;entryDx=0;entryDy=0;exitX=1;exitY=0.5;exitDx=0;exitDy=0;fontSize=12;" parent="1" source="1440" target="RgzGfIZMFBr-IAiuyJZ1-1583" edge="1">
                    <mxGeometry x="-24" y="196.5" width="100" height="100" as="geometry">
                        <mxPoint x="2974.5" y="1556" as="sourcePoint"/>
                        <mxPoint x="3055.5" y="1514" as="targetPoint"/>
                    </mxGeometry>
                </mxCell>
                <mxCell id="RgzGfIZMFBr-IAiuyJZ1-1587" value="" style="edgeStyle=none;endArrow=none;strokeWidth=3;strokeColor=#64BBE2;html=1;fontColor=#000000;fontStyle=1;entryX=1;entryY=0.5;entryDx=0;entryDy=0;exitX=0;exitY=0.5;exitDx=0;exitDy=0;fontSize=12;" parent="1" source="RgzGfIZMFBr-IAiuyJZ1-1584" target="1440" edge="1">
                    <mxGeometry x="-24" y="196.5" width="100" height="100" as="geometry">
                        <mxPoint x="2984.5" y="1566" as="sourcePoint"/>
                        <mxPoint x="3065.5" y="1524" as="targetPoint"/>
                    </mxGeometry>
                </mxCell>
                <mxCell id="1fDAP2TU1ixhvuIMdW9j-1542" value="Strona z darmowym pobieraniem obrazków / ChatGPT już opłacony" style="rounded=1;fillColor=#f08e81;strokeColor=none;strokeWidth=3;shadow=0;html=1;fontColor=#000000;fontStyle=1;whiteSpace=wrap;fontSize=12;" parent="1" vertex="1">
                    <mxGeometry x="1304" y="1790" width="209" height="51" as="geometry"/>
                </mxCell>
                <mxCell id="1fDAP2TU1ixhvuIMdW9j-1543" value="Cała grafika generowana w jednym stylu - podobny prompt" style="rounded=1;fillColor=#f08e81;strokeColor=none;strokeWidth=3;shadow=0;html=1;fontColor=#000000;fontStyle=1;whiteSpace=wrap;fontSize=12;" parent="1" vertex="1">
                    <mxGeometry x="1304" y="1866" width="209" height="51" as="geometry"/>
                </mxCell>
                <mxCell id="1fDAP2TU1ixhvuIMdW9j-1544" value="Cała grafika generowana w jednym stylu - podobny prompt" style="rounded=1;fillColor=#f08e81;strokeColor=none;strokeWidth=3;shadow=0;html=1;fontColor=#000000;fontStyle=1;whiteSpace=wrap;fontSize=12;" parent="1" vertex="1">
                    <mxGeometry x="1304" y="1942.5" width="209" height="51" as="geometry"/>
                </mxCell>
                <mxCell id="1fDAP2TU1ixhvuIMdW9j-1545" value="" style="edgeStyle=none;endArrow=none;strokeWidth=3;strokeColor=#F08E81;html=1;fontColor=#000000;fontStyle=1;entryX=1;entryY=0.5;entryDx=0;entryDy=0;exitX=0;exitY=0.25;exitDx=0;exitDy=0;fontSize=12;" parent="1" source="1497" target="1fDAP2TU1ixhvuIMdW9j-1542" edge="1">
                    <mxGeometry x="188.5" y="51.5" width="100" height="100" as="geometry">
                        <mxPoint x="1990" y="1906" as="sourcePoint"/>
                        <mxPoint x="1784" y="1908" as="targetPoint"/>
                    </mxGeometry>
                </mxCell>
                <mxCell id="1fDAP2TU1ixhvuIMdW9j-1546" value="" style="edgeStyle=none;endArrow=none;strokeWidth=3;strokeColor=#F08E81;html=1;fontColor=#000000;fontStyle=1;entryX=1;entryY=0.5;entryDx=0;entryDy=0;exitX=0;exitY=0.5;exitDx=0;exitDy=0;fontSize=12;" parent="1" source="1497" target="1fDAP2TU1ixhvuIMdW9j-1543" edge="1">
                    <mxGeometry x="188.5" y="51.5" width="100" height="100" as="geometry">
                        <mxPoint x="2010" y="1926" as="sourcePoint"/>
                        <mxPoint x="1804" y="1928" as="targetPoint"/>
                    </mxGeometry>
                </mxCell>
                <mxCell id="1fDAP2TU1ixhvuIMdW9j-1547" value="" style="edgeStyle=none;endArrow=none;strokeWidth=3;strokeColor=#F08E81;html=1;fontColor=#000000;fontStyle=1;entryX=1;entryY=0.5;entryDx=0;entryDy=0;exitX=0;exitY=0.75;exitDx=0;exitDy=0;fontSize=12;" parent="1" source="1497" target="1fDAP2TU1ixhvuIMdW9j-1544" edge="1">
                    <mxGeometry x="188.5" y="51.5" width="100" height="100" as="geometry">
                        <mxPoint x="2030" y="1946" as="sourcePoint"/>
                        <mxPoint x="1824" y="1948" as="targetPoint"/>
                    </mxGeometry>
                </mxCell>
                <mxCell id="1fDAP2TU1ixhvuIMdW9j-1549" value="Drzewko rozwoju" style="rounded=1;fillColor=#a29dc5;strokeColor=none;strokeWidth=3;shadow=0;html=1;fontColor=#000000;fontStyle=1;fontSize=12;" parent="1" vertex="1">
                    <mxGeometry x="1104" y="1594" width="220" height="40" as="geometry"/>
                </mxCell>
                <mxCell id="1fDAP2TU1ixhvuIMdW9j-1550" value="" style="endArrow=none;html=1;rounded=1;strokeColor=#A29DC5;strokeWidth=3;entryX=0;entryY=0.5;entryDx=0;entryDy=0;exitX=1;exitY=0.5;exitDx=0;exitDy=0;fontColor=#000000;fontStyle=1;fontSize=12;" parent="1" source="1fDAP2TU1ixhvuIMdW9j-1549" target="1529" edge="1">
                    <mxGeometry width="50" height="50" relative="1" as="geometry">
                        <mxPoint x="1344" y="1542" as="sourcePoint"/>
                        <mxPoint x="1474" y="1514" as="targetPoint"/>
                    </mxGeometry>
                </mxCell>
                <mxCell id="-ZKpV3mjGO1mKtqdOSS1-1542" value="Staking (ETH)" style="rounded=1;fillColor=#a29dc5;strokeColor=none;strokeWidth=3;shadow=0;html=1;fontColor=#000000;fontStyle=1;fontSize=12;" parent="1" vertex="1">
                    <mxGeometry x="1529" y="1326.45" width="120" height="40" as="geometry"/>
                </mxCell>
                <mxCell id="-ZKpV3mjGO1mKtqdOSS1-1543" value="" style="edgeStyle=none;endArrow=none;strokeWidth=3;strokeColor=#A29DC5;html=1;fontColor=#000000;fontStyle=1;fontSize=12;exitX=0;exitY=0;exitDx=0;exitDy=0;" parent="1" source="1516" target="-ZKpV3mjGO1mKtqdOSS1-1542" edge="1">
                    <mxGeometry x="-1423" y="-371.05" width="100" height="100" as="geometry">
                        <mxPoint x="1805.3575203234777" y="1434.0019609888707" as="sourcePoint"/>
                        <mxPoint x="91" y="371.45" as="targetPoint"/>
                    </mxGeometry>
                </mxCell>
                <mxCell id="1543" value="Poboczne" style="ellipse;whiteSpace=wrap;html=1;shadow=0;fontFamily=Helvetica;fontSize=12;fontColor=#000000;align=center;strokeWidth=3;fillColor=#F08705;strokeColor=none;fontStyle=1" parent="1" vertex="1">
                    <mxGeometry x="2516.25" y="1888" width="152" height="152" as="geometry"/>
                </mxCell>
                <mxCell id="1544" value="" style="edgeStyle=none;endArrow=none;strokeWidth=6;strokeColor=#F08705;html=1;fontColor=#000000;fontStyle=1;fontSize=12;" parent="1" source="1515" target="1543" edge="1">
                    <mxGeometry x="276.53" y="236.49" width="100" height="100" as="geometry">
                        <mxPoint x="2403.995810970079" y="1668.9756866121118" as="sourcePoint"/>
                        <mxPoint x="2408.5956443915325" y="1945.9957438446093" as="targetPoint"/>
                    </mxGeometry>
                </mxCell>
                <mxCell id="1545" value="" style="edgeStyle=none;endArrow=none;strokeWidth=3;strokeColor=#F5AF58;html=1;fontColor=#000000;fontStyle=1;fontSize=12;exitX=1;exitY=1;exitDx=0;exitDy=0;entryX=0.5;entryY=0;entryDx=0;entryDy=0;" parent="1" source="1543" target="1546" edge="1">
                    <mxGeometry x="501.58000000000004" y="43.19" width="100" height="100" as="geometry">
                        <mxPoint x="2635.001820477125" y="2058.8144590328916" as="sourcePoint"/>
                        <mxPoint x="2758" y="2138" as="targetPoint"/>
                    </mxGeometry>
                </mxCell>
                <mxCell id="1546" value="Chatbot do nauki" style="rounded=1;fillColor=#f5af58;strokeColor=none;strokeWidth=3;shadow=0;html=1;fontColor=#000000;fontStyle=1;whiteSpace=wrap;fontSize=12;" parent="1" vertex="1">
                    <mxGeometry x="2720" y="2153" width="185" height="66" as="geometry"/>
                </mxCell>
                <mxCell id="1547" value="Edukacja" style="rounded=1;fillColor=#f5af58;strokeColor=none;strokeWidth=3;shadow=0;html=1;fontColor=#000000;fontStyle=1;whiteSpace=wrap;fontSize=12;" parent="1" vertex="1">
                    <mxGeometry x="2928" y="2148" width="185" height="66" as="geometry"/>
                </mxCell>
                <mxCell id="1548" value="" style="edgeStyle=none;endArrow=none;strokeWidth=3;strokeColor=#F5AF58;html=1;fontColor=#000000;fontStyle=1;fontSize=12;exitX=0.972;exitY=0.697;exitDx=0;exitDy=0;entryX=0.324;entryY=0.03;entryDx=0;entryDy=0;exitPerimeter=0;entryPerimeter=0;" parent="1" source="1543" target="1547" edge="1">
                    <mxGeometry x="541.59" y="18.949999999999996" width="100" height="100" as="geometry">
                        <mxPoint x="2686.000115370178" y="1993.5001153701776" as="sourcePoint"/>
                        <mxPoint x="2852.51" y="2128.76" as="targetPoint"/>
                    </mxGeometry>
                </mxCell>
            </root>
        </mxGraphModel>
    </diagram>
    <diagram id="wfDo3IbxjMAbHJ9NTGOf" name="Todo">
        <mxGraphModel dx="840" dy="1276" grid="1" gridSize="10" guides="1" tooltips="1" connect="1" arrows="1" fold="1" page="1" pageScale="1" pageWidth="850" pageHeight="1100" math="0" shadow="0">
            <root>
                <mxCell id="0"/>
                <mxCell id="1" parent="0"/>
                <mxCell id="qx0Xr_bxVmY2tH6gNsLB-1" value="To do ✅" style="shape=table;startSize=30;container=1;collapsible=0;childLayout=tableLayout;fixedRows=1;rowLines=0;fontStyle=1;fontSize=20;swimlaneFillColor=default;" parent="1" vertex="1">
                    <mxGeometry x="60" y="50" width="750" height="976" as="geometry"/>
                </mxCell>
                <mxCell id="qx0Xr_bxVmY2tH6gNsLB-2" value="" style="shape=tableRow;horizontal=0;startSize=0;swimlaneHead=0;swimlaneBody=0;top=0;left=0;bottom=1;right=0;collapsible=0;dropTarget=0;fillColor=none;points=[[0,0.5],[1,0.5]];portConstraint=eastwest;fontSize=19;" parent="qx0Xr_bxVmY2tH6gNsLB-1" vertex="1">
                    <mxGeometry y="30" width="750" height="70" as="geometry"/>
                </mxCell>
                <mxCell id="qx0Xr_bxVmY2tH6gNsLB-3" value="1" style="shape=partialRectangle;html=1;whiteSpace=wrap;connectable=0;fillColor=none;top=0;left=0;bottom=1;right=0;overflow=hidden;pointerEvents=1;fontSize=19;" parent="qx0Xr_bxVmY2tH6gNsLB-2" vertex="1">
                    <mxGeometry width="93" height="70" as="geometry">
                        <mxRectangle width="93" height="70" as="alternateBounds"/>
                    </mxGeometry>
                </mxCell>
                <mxCell id="qx0Xr_bxVmY2tH6gNsLB-4" value="Różne waluty - dolary i na razie jedno krypto - dolary za kliki i wymianę z krypto, krypto z koparek" style="shape=partialRectangle;html=1;whiteSpace=wrap;connectable=0;fillColor=none;top=0;left=0;bottom=1;right=0;align=left;spacingLeft=6;overflow=hidden;fontSize=19;" parent="qx0Xr_bxVmY2tH6gNsLB-2" vertex="1">
                    <mxGeometry x="93" width="547" height="70" as="geometry">
                        <mxRectangle width="547" height="70" as="alternateBounds"/>
                    </mxGeometry>
                </mxCell>
                <mxCell id="qx0Xr_bxVmY2tH6gNsLB-5" value="" style="shape=partialRectangle;html=1;whiteSpace=wrap;connectable=0;fillColor=none;top=0;left=0;bottom=1;right=0;align=center;spacingLeft=6;overflow=hidden;fontSize=19;" parent="qx0Xr_bxVmY2tH6gNsLB-2" vertex="1">
                    <mxGeometry x="640" width="110" height="70" as="geometry">
                        <mxRectangle width="110" height="70" as="alternateBounds"/>
                    </mxGeometry>
                </mxCell>
                <mxCell id="qx0Xr_bxVmY2tH6gNsLB-6" value="" style="shape=tableRow;horizontal=0;startSize=0;swimlaneHead=0;swimlaneBody=0;top=0;left=0;bottom=1;right=0;collapsible=0;dropTarget=0;fillColor=none;points=[[0,0.5],[1,0.5]];portConstraint=eastwest;fontSize=19;" parent="qx0Xr_bxVmY2tH6gNsLB-1" vertex="1">
                    <mxGeometry y="100" width="750" height="33" as="geometry"/>
                </mxCell>
                <mxCell id="qx0Xr_bxVmY2tH6gNsLB-7" value="2" style="shape=partialRectangle;html=1;whiteSpace=wrap;connectable=0;fillColor=none;top=0;left=0;bottom=1;right=0;overflow=hidden;fontSize=19;" parent="qx0Xr_bxVmY2tH6gNsLB-6" vertex="1">
                    <mxGeometry width="93" height="33" as="geometry">
                        <mxRectangle width="93" height="33" as="alternateBounds"/>
                    </mxGeometry>
                </mxCell>
                <mxCell id="qx0Xr_bxVmY2tH6gNsLB-8" value="Różne rodzaje koparek" style="shape=partialRectangle;html=1;whiteSpace=wrap;connectable=0;fillColor=none;top=0;left=0;bottom=1;right=0;align=left;spacingLeft=6;overflow=hidden;fontSize=19;" parent="qx0Xr_bxVmY2tH6gNsLB-6" vertex="1">
                    <mxGeometry x="93" width="547" height="33" as="geometry">
                        <mxRectangle width="547" height="33" as="alternateBounds"/>
                    </mxGeometry>
                </mxCell>
                <mxCell id="qx0Xr_bxVmY2tH6gNsLB-9" style="shape=partialRectangle;html=1;whiteSpace=wrap;connectable=0;fillColor=none;top=0;left=0;bottom=1;right=0;align=center;spacingLeft=6;overflow=hidden;fontSize=19;" parent="qx0Xr_bxVmY2tH6gNsLB-6" vertex="1">
                    <mxGeometry x="640" width="110" height="33" as="geometry">
                        <mxRectangle width="110" height="33" as="alternateBounds"/>
                    </mxGeometry>
                </mxCell>
                <mxCell id="qx0Xr_bxVmY2tH6gNsLB-10" value="" style="shape=tableRow;horizontal=0;startSize=0;swimlaneHead=0;swimlaneBody=0;top=0;left=0;bottom=1;right=0;collapsible=0;dropTarget=0;fillColor=none;points=[[0,0.5],[1,0.5]];portConstraint=eastwest;fontSize=19;" parent="qx0Xr_bxVmY2tH6gNsLB-1" vertex="1">
                    <mxGeometry y="133" width="750" height="30" as="geometry"/>
                </mxCell>
                <mxCell id="qx0Xr_bxVmY2tH6gNsLB-11" value="3" style="shape=partialRectangle;html=1;whiteSpace=wrap;connectable=0;fillColor=none;top=0;left=0;bottom=1;right=0;overflow=hidden;fontSize=19;" parent="qx0Xr_bxVmY2tH6gNsLB-10" vertex="1">
                    <mxGeometry width="93" height="30" as="geometry">
                        <mxRectangle width="93" height="30" as="alternateBounds"/>
                    </mxGeometry>
                </mxCell>
                <mxCell id="qx0Xr_bxVmY2tH6gNsLB-12" value="Upgrade'y kliknięć" style="shape=partialRectangle;html=1;whiteSpace=wrap;connectable=0;fillColor=none;top=0;left=0;bottom=1;right=0;align=left;spacingLeft=6;overflow=hidden;fontSize=19;" parent="qx0Xr_bxVmY2tH6gNsLB-10" vertex="1">
                    <mxGeometry x="93" width="547" height="30" as="geometry">
                        <mxRectangle width="547" height="30" as="alternateBounds"/>
                    </mxGeometry>
                </mxCell>
                <mxCell id="qx0Xr_bxVmY2tH6gNsLB-13" style="shape=partialRectangle;html=1;whiteSpace=wrap;connectable=0;fillColor=none;top=0;left=0;bottom=1;right=0;align=center;spacingLeft=6;overflow=hidden;fontSize=19;" parent="qx0Xr_bxVmY2tH6gNsLB-10" vertex="1">
                    <mxGeometry x="640" width="110" height="30" as="geometry">
                        <mxRectangle width="110" height="30" as="alternateBounds"/>
                    </mxGeometry>
                </mxCell>
                <mxCell id="qx0Xr_bxVmY2tH6gNsLB-14" value="" style="shape=tableRow;horizontal=0;startSize=0;swimlaneHead=0;swimlaneBody=0;top=0;left=0;bottom=1;right=0;collapsible=0;dropTarget=0;fillColor=none;points=[[0,0.5],[1,0.5]];portConstraint=eastwest;fontSize=19;" parent="qx0Xr_bxVmY2tH6gNsLB-1" vertex="1">
                    <mxGeometry y="163" width="750" height="30" as="geometry"/>
                </mxCell>
                <mxCell id="qx0Xr_bxVmY2tH6gNsLB-15" value="4" style="shape=partialRectangle;html=1;whiteSpace=wrap;connectable=0;fillColor=none;top=0;left=0;bottom=1;right=0;overflow=hidden;fontSize=19;" parent="qx0Xr_bxVmY2tH6gNsLB-14" vertex="1">
                    <mxGeometry width="93" height="30" as="geometry">
                        <mxRectangle width="93" height="30" as="alternateBounds"/>
                    </mxGeometry>
                </mxCell>
                <mxCell id="qx0Xr_bxVmY2tH6gNsLB-16" value="Koszty prądu oraz elektrownie" style="shape=partialRectangle;html=1;whiteSpace=wrap;connectable=0;fillColor=none;top=0;left=0;bottom=1;right=0;align=left;spacingLeft=6;overflow=hidden;fontSize=19;" parent="qx0Xr_bxVmY2tH6gNsLB-14" vertex="1">
                    <mxGeometry x="93" width="547" height="30" as="geometry">
                        <mxRectangle width="547" height="30" as="alternateBounds"/>
                    </mxGeometry>
                </mxCell>
                <mxCell id="qx0Xr_bxVmY2tH6gNsLB-17" style="shape=partialRectangle;html=1;whiteSpace=wrap;connectable=0;fillColor=none;top=0;left=0;bottom=1;right=0;align=center;spacingLeft=6;overflow=hidden;fontSize=19;" parent="qx0Xr_bxVmY2tH6gNsLB-14" vertex="1">
                    <mxGeometry x="640" width="110" height="30" as="geometry">
                        <mxRectangle width="110" height="30" as="alternateBounds"/>
                    </mxGeometry>
                </mxCell>
                <mxCell id="qx0Xr_bxVmY2tH6gNsLB-18" value="" style="shape=tableRow;horizontal=0;startSize=0;swimlaneHead=0;swimlaneBody=0;top=0;left=0;bottom=1;right=0;collapsible=0;dropTarget=0;fillColor=none;points=[[0,0.5],[1,0.5]];portConstraint=eastwest;fontSize=19;" parent="qx0Xr_bxVmY2tH6gNsLB-1" vertex="1">
                    <mxGeometry y="193" width="750" height="30" as="geometry"/>
                </mxCell>
                <mxCell id="qx0Xr_bxVmY2tH6gNsLB-19" value="5" style="shape=partialRectangle;html=1;whiteSpace=wrap;connectable=0;fillColor=none;top=0;left=0;bottom=1;right=0;overflow=hidden;fontSize=19;" parent="qx0Xr_bxVmY2tH6gNsLB-18" vertex="1">
                    <mxGeometry width="93" height="30" as="geometry">
                        <mxRectangle width="93" height="30" as="alternateBounds"/>
                    </mxGeometry>
                </mxCell>
                <mxCell id="qx0Xr_bxVmY2tH6gNsLB-20" value="Value 2" style="shape=partialRectangle;html=1;whiteSpace=wrap;connectable=0;fillColor=none;top=0;left=0;bottom=1;right=0;align=left;spacingLeft=6;overflow=hidden;fontSize=19;" parent="qx0Xr_bxVmY2tH6gNsLB-18" vertex="1">
                    <mxGeometry x="93" width="547" height="30" as="geometry">
                        <mxRectangle width="547" height="30" as="alternateBounds"/>
                    </mxGeometry>
                </mxCell>
                <mxCell id="qx0Xr_bxVmY2tH6gNsLB-21" style="shape=partialRectangle;html=1;whiteSpace=wrap;connectable=0;fillColor=none;top=0;left=0;bottom=1;right=0;align=center;spacingLeft=6;overflow=hidden;fontSize=19;" parent="qx0Xr_bxVmY2tH6gNsLB-18" vertex="1">
                    <mxGeometry x="640" width="110" height="30" as="geometry">
                        <mxRectangle width="110" height="30" as="alternateBounds"/>
                    </mxGeometry>
                </mxCell>
                <mxCell id="qx0Xr_bxVmY2tH6gNsLB-22" value="" style="shape=tableRow;horizontal=0;startSize=0;swimlaneHead=0;swimlaneBody=0;top=0;left=0;bottom=1;right=0;collapsible=0;dropTarget=0;fillColor=none;points=[[0,0.5],[1,0.5]];portConstraint=eastwest;fontSize=19;" parent="qx0Xr_bxVmY2tH6gNsLB-1" vertex="1">
                    <mxGeometry y="223" width="750" height="35" as="geometry"/>
                </mxCell>
                <mxCell id="qx0Xr_bxVmY2tH6gNsLB-23" value="6" style="shape=partialRectangle;html=1;whiteSpace=wrap;connectable=0;fillColor=none;top=0;left=0;bottom=1;right=0;overflow=hidden;pointerEvents=1;fontSize=19;" parent="qx0Xr_bxVmY2tH6gNsLB-22" vertex="1">
                    <mxGeometry width="93" height="35" as="geometry">
                        <mxRectangle width="93" height="35" as="alternateBounds"/>
                    </mxGeometry>
                </mxCell>
                <mxCell id="qx0Xr_bxVmY2tH6gNsLB-24" value="Value 1" style="shape=partialRectangle;html=1;whiteSpace=wrap;connectable=0;fillColor=none;top=0;left=0;bottom=1;right=0;align=left;spacingLeft=6;overflow=hidden;fontSize=19;" parent="qx0Xr_bxVmY2tH6gNsLB-22" vertex="1">
                    <mxGeometry x="93" width="547" height="35" as="geometry">
                        <mxRectangle width="547" height="35" as="alternateBounds"/>
                    </mxGeometry>
                </mxCell>
                <mxCell id="qx0Xr_bxVmY2tH6gNsLB-25" style="shape=partialRectangle;html=1;whiteSpace=wrap;connectable=0;fillColor=none;top=0;left=0;bottom=1;right=0;align=center;spacingLeft=6;overflow=hidden;fontSize=19;" parent="qx0Xr_bxVmY2tH6gNsLB-22" vertex="1">
                    <mxGeometry x="640" width="110" height="35" as="geometry">
                        <mxRectangle width="110" height="35" as="alternateBounds"/>
                    </mxGeometry>
                </mxCell>
                <mxCell id="qx0Xr_bxVmY2tH6gNsLB-26" value="" style="shape=tableRow;horizontal=0;startSize=0;swimlaneHead=0;swimlaneBody=0;top=0;left=0;bottom=1;right=0;collapsible=0;dropTarget=0;fillColor=none;points=[[0,0.5],[1,0.5]];portConstraint=eastwest;fontSize=19;" parent="qx0Xr_bxVmY2tH6gNsLB-1" vertex="1">
                    <mxGeometry y="258" width="750" height="30" as="geometry"/>
                </mxCell>
                <mxCell id="qx0Xr_bxVmY2tH6gNsLB-27" value="7" style="shape=partialRectangle;html=1;whiteSpace=wrap;connectable=0;fillColor=none;top=0;left=0;bottom=1;right=0;overflow=hidden;fontSize=19;" parent="qx0Xr_bxVmY2tH6gNsLB-26" vertex="1">
                    <mxGeometry width="93" height="30" as="geometry">
                        <mxRectangle width="93" height="30" as="alternateBounds"/>
                    </mxGeometry>
                </mxCell>
                <mxCell id="qx0Xr_bxVmY2tH6gNsLB-28" value="Value 3" style="shape=partialRectangle;html=1;whiteSpace=wrap;connectable=0;fillColor=none;top=0;left=0;bottom=1;right=0;align=left;spacingLeft=6;overflow=hidden;fontSize=19;" parent="qx0Xr_bxVmY2tH6gNsLB-26" vertex="1">
                    <mxGeometry x="93" width="547" height="30" as="geometry">
                        <mxRectangle width="547" height="30" as="alternateBounds"/>
                    </mxGeometry>
                </mxCell>
                <mxCell id="qx0Xr_bxVmY2tH6gNsLB-29" style="shape=partialRectangle;html=1;whiteSpace=wrap;connectable=0;fillColor=none;top=0;left=0;bottom=1;right=0;align=center;spacingLeft=6;overflow=hidden;fontSize=19;" parent="qx0Xr_bxVmY2tH6gNsLB-26" vertex="1">
                    <mxGeometry x="640" width="110" height="30" as="geometry">
                        <mxRectangle width="110" height="30" as="alternateBounds"/>
                    </mxGeometry>
                </mxCell>
                <mxCell id="qx0Xr_bxVmY2tH6gNsLB-30" value="" style="shape=tableRow;horizontal=0;startSize=0;swimlaneHead=0;swimlaneBody=0;top=0;left=0;bottom=1;right=0;collapsible=0;dropTarget=0;fillColor=none;points=[[0,0.5],[1,0.5]];portConstraint=eastwest;fontSize=19;" parent="qx0Xr_bxVmY2tH6gNsLB-1" vertex="1">
                    <mxGeometry y="288" width="750" height="30" as="geometry"/>
                </mxCell>
                <mxCell id="qx0Xr_bxVmY2tH6gNsLB-31" value="8" style="shape=partialRectangle;html=1;whiteSpace=wrap;connectable=0;fillColor=none;top=0;left=0;bottom=1;right=0;overflow=hidden;fontSize=19;" parent="qx0Xr_bxVmY2tH6gNsLB-30" vertex="1">
                    <mxGeometry width="93" height="30" as="geometry">
                        <mxRectangle width="93" height="30" as="alternateBounds"/>
                    </mxGeometry>
                </mxCell>
                <mxCell id="qx0Xr_bxVmY2tH6gNsLB-32" value="Value 3" style="shape=partialRectangle;html=1;whiteSpace=wrap;connectable=0;fillColor=none;top=0;left=0;bottom=1;right=0;align=left;spacingLeft=6;overflow=hidden;fontSize=19;" parent="qx0Xr_bxVmY2tH6gNsLB-30" vertex="1">
                    <mxGeometry x="93" width="547" height="30" as="geometry">
                        <mxRectangle width="547" height="30" as="alternateBounds"/>
                    </mxGeometry>
                </mxCell>
                <mxCell id="qx0Xr_bxVmY2tH6gNsLB-33" style="shape=partialRectangle;html=1;whiteSpace=wrap;connectable=0;fillColor=none;top=0;left=0;bottom=1;right=0;align=center;spacingLeft=6;overflow=hidden;fontSize=19;" parent="qx0Xr_bxVmY2tH6gNsLB-30" vertex="1">
                    <mxGeometry x="640" width="110" height="30" as="geometry">
                        <mxRectangle width="110" height="30" as="alternateBounds"/>
                    </mxGeometry>
                </mxCell>
                <mxCell id="qx0Xr_bxVmY2tH6gNsLB-34" value="" style="shape=tableRow;horizontal=0;startSize=0;swimlaneHead=0;swimlaneBody=0;top=0;left=0;bottom=1;right=0;collapsible=0;dropTarget=0;fillColor=none;points=[[0,0.5],[1,0.5]];portConstraint=eastwest;fontSize=19;" parent="qx0Xr_bxVmY2tH6gNsLB-1" vertex="1">
                    <mxGeometry y="318" width="750" height="33" as="geometry"/>
                </mxCell>
                <mxCell id="qx0Xr_bxVmY2tH6gNsLB-35" value="9" style="shape=partialRectangle;html=1;whiteSpace=wrap;connectable=0;fillColor=none;top=0;left=0;bottom=1;right=0;overflow=hidden;pointerEvents=1;fontSize=19;" parent="qx0Xr_bxVmY2tH6gNsLB-34" vertex="1">
                    <mxGeometry width="93" height="33" as="geometry">
                        <mxRectangle width="93" height="33" as="alternateBounds"/>
                    </mxGeometry>
                </mxCell>
                <mxCell id="qx0Xr_bxVmY2tH6gNsLB-36" value="Value 1" style="shape=partialRectangle;html=1;whiteSpace=wrap;connectable=0;fillColor=none;top=0;left=0;bottom=1;right=0;align=left;spacingLeft=6;overflow=hidden;fontSize=19;" parent="qx0Xr_bxVmY2tH6gNsLB-34" vertex="1">
                    <mxGeometry x="93" width="547" height="33" as="geometry">
                        <mxRectangle width="547" height="33" as="alternateBounds"/>
                    </mxGeometry>
                </mxCell>
                <mxCell id="qx0Xr_bxVmY2tH6gNsLB-37" style="shape=partialRectangle;html=1;whiteSpace=wrap;connectable=0;fillColor=none;top=0;left=0;bottom=1;right=0;align=center;spacingLeft=6;overflow=hidden;fontSize=19;" parent="qx0Xr_bxVmY2tH6gNsLB-34" vertex="1">
                    <mxGeometry x="640" width="110" height="33" as="geometry">
                        <mxRectangle width="110" height="33" as="alternateBounds"/>
                    </mxGeometry>
                </mxCell>
                <mxCell id="qx0Xr_bxVmY2tH6gNsLB-38" value="" style="shape=tableRow;horizontal=0;startSize=0;swimlaneHead=0;swimlaneBody=0;top=0;left=0;bottom=1;right=0;collapsible=0;dropTarget=0;fillColor=none;points=[[0,0.5],[1,0.5]];portConstraint=eastwest;fontSize=19;" parent="qx0Xr_bxVmY2tH6gNsLB-1" vertex="1">
                    <mxGeometry y="351" width="750" height="30" as="geometry"/>
                </mxCell>
                <mxCell id="qx0Xr_bxVmY2tH6gNsLB-39" value="10" style="shape=partialRectangle;html=1;whiteSpace=wrap;connectable=0;fillColor=none;top=0;left=0;bottom=1;right=0;overflow=hidden;fontSize=19;" parent="qx0Xr_bxVmY2tH6gNsLB-38" vertex="1">
                    <mxGeometry width="93" height="30" as="geometry">
                        <mxRectangle width="93" height="30" as="alternateBounds"/>
                    </mxGeometry>
                </mxCell>
                <mxCell id="qx0Xr_bxVmY2tH6gNsLB-40" value="Value 2" style="shape=partialRectangle;html=1;whiteSpace=wrap;connectable=0;fillColor=none;top=0;left=0;bottom=1;right=0;align=left;spacingLeft=6;overflow=hidden;fontSize=19;" parent="qx0Xr_bxVmY2tH6gNsLB-38" vertex="1">
                    <mxGeometry x="93" width="547" height="30" as="geometry">
                        <mxRectangle width="547" height="30" as="alternateBounds"/>
                    </mxGeometry>
                </mxCell>
                <mxCell id="qx0Xr_bxVmY2tH6gNsLB-41" style="shape=partialRectangle;html=1;whiteSpace=wrap;connectable=0;fillColor=none;top=0;left=0;bottom=1;right=0;align=center;spacingLeft=6;overflow=hidden;fontSize=19;" parent="qx0Xr_bxVmY2tH6gNsLB-38" vertex="1">
                    <mxGeometry x="640" width="110" height="30" as="geometry">
                        <mxRectangle width="110" height="30" as="alternateBounds"/>
                    </mxGeometry>
                </mxCell>
                <mxCell id="qx0Xr_bxVmY2tH6gNsLB-42" value="" style="shape=tableRow;horizontal=0;startSize=0;swimlaneHead=0;swimlaneBody=0;top=0;left=0;bottom=1;right=0;collapsible=0;dropTarget=0;fillColor=none;points=[[0,0.5],[1,0.5]];portConstraint=eastwest;fontSize=19;" parent="qx0Xr_bxVmY2tH6gNsLB-1" vertex="1">
                    <mxGeometry y="381" width="750" height="30" as="geometry"/>
                </mxCell>
                <mxCell id="qx0Xr_bxVmY2tH6gNsLB-43" value="11" style="shape=partialRectangle;html=1;whiteSpace=wrap;connectable=0;fillColor=none;top=0;left=0;bottom=1;right=0;overflow=hidden;fontSize=19;" parent="qx0Xr_bxVmY2tH6gNsLB-42" vertex="1">
                    <mxGeometry width="93" height="30" as="geometry">
                        <mxRectangle width="93" height="30" as="alternateBounds"/>
                    </mxGeometry>
                </mxCell>
                <mxCell id="qx0Xr_bxVmY2tH6gNsLB-44" value="Value 3" style="shape=partialRectangle;html=1;whiteSpace=wrap;connectable=0;fillColor=none;top=0;left=0;bottom=1;right=0;align=left;spacingLeft=6;overflow=hidden;fontSize=19;" parent="qx0Xr_bxVmY2tH6gNsLB-42" vertex="1">
                    <mxGeometry x="93" width="547" height="30" as="geometry">
                        <mxRectangle width="547" height="30" as="alternateBounds"/>
                    </mxGeometry>
                </mxCell>
                <mxCell id="qx0Xr_bxVmY2tH6gNsLB-45" style="shape=partialRectangle;html=1;whiteSpace=wrap;connectable=0;fillColor=none;top=0;left=0;bottom=1;right=0;align=center;spacingLeft=6;overflow=hidden;fontSize=19;" parent="qx0Xr_bxVmY2tH6gNsLB-42" vertex="1">
                    <mxGeometry x="640" width="110" height="30" as="geometry">
                        <mxRectangle width="110" height="30" as="alternateBounds"/>
                    </mxGeometry>
                </mxCell>
                <mxCell id="qx0Xr_bxVmY2tH6gNsLB-46" value="" style="shape=tableRow;horizontal=0;startSize=0;swimlaneHead=0;swimlaneBody=0;top=0;left=0;bottom=1;right=0;collapsible=0;dropTarget=0;fillColor=none;points=[[0,0.5],[1,0.5]];portConstraint=eastwest;fontSize=19;" parent="qx0Xr_bxVmY2tH6gNsLB-1" vertex="1">
                    <mxGeometry y="411" width="750" height="30" as="geometry"/>
                </mxCell>
                <mxCell id="qx0Xr_bxVmY2tH6gNsLB-47" value="12" style="shape=partialRectangle;html=1;whiteSpace=wrap;connectable=0;fillColor=none;top=0;left=0;bottom=1;right=0;overflow=hidden;fontSize=19;" parent="qx0Xr_bxVmY2tH6gNsLB-46" vertex="1">
                    <mxGeometry width="93" height="30" as="geometry">
                        <mxRectangle width="93" height="30" as="alternateBounds"/>
                    </mxGeometry>
                </mxCell>
                <mxCell id="qx0Xr_bxVmY2tH6gNsLB-48" value="Value 3" style="shape=partialRectangle;html=1;whiteSpace=wrap;connectable=0;fillColor=none;top=0;left=0;bottom=1;right=0;align=left;spacingLeft=6;overflow=hidden;fontSize=19;" parent="qx0Xr_bxVmY2tH6gNsLB-46" vertex="1">
                    <mxGeometry x="93" width="547" height="30" as="geometry">
                        <mxRectangle width="547" height="30" as="alternateBounds"/>
                    </mxGeometry>
                </mxCell>
                <mxCell id="qx0Xr_bxVmY2tH6gNsLB-49" style="shape=partialRectangle;html=1;whiteSpace=wrap;connectable=0;fillColor=none;top=0;left=0;bottom=1;right=0;align=center;spacingLeft=6;overflow=hidden;fontSize=19;" parent="qx0Xr_bxVmY2tH6gNsLB-46" vertex="1">
                    <mxGeometry x="640" width="110" height="30" as="geometry">
                        <mxRectangle width="110" height="30" as="alternateBounds"/>
                    </mxGeometry>
                </mxCell>
                <mxCell id="qx0Xr_bxVmY2tH6gNsLB-50" value="" style="shape=tableRow;horizontal=0;startSize=0;swimlaneHead=0;swimlaneBody=0;top=0;left=0;bottom=1;right=0;collapsible=0;dropTarget=0;fillColor=none;points=[[0,0.5],[1,0.5]];portConstraint=eastwest;fontSize=19;" parent="qx0Xr_bxVmY2tH6gNsLB-1" vertex="1">
                    <mxGeometry y="441" width="750" height="33" as="geometry"/>
                </mxCell>
                <mxCell id="qx0Xr_bxVmY2tH6gNsLB-51" value="13" style="shape=partialRectangle;html=1;whiteSpace=wrap;connectable=0;fillColor=none;top=0;left=0;bottom=1;right=0;overflow=hidden;fontSize=19;" parent="qx0Xr_bxVmY2tH6gNsLB-50" vertex="1">
                    <mxGeometry width="93" height="33" as="geometry">
                        <mxRectangle width="93" height="33" as="alternateBounds"/>
                    </mxGeometry>
                </mxCell>
                <mxCell id="qx0Xr_bxVmY2tH6gNsLB-52" value="Value 2" style="shape=partialRectangle;html=1;whiteSpace=wrap;connectable=0;fillColor=none;top=0;left=0;bottom=1;right=0;align=left;spacingLeft=6;overflow=hidden;fontSize=19;" parent="qx0Xr_bxVmY2tH6gNsLB-50" vertex="1">
                    <mxGeometry x="93" width="547" height="33" as="geometry">
                        <mxRectangle width="547" height="33" as="alternateBounds"/>
                    </mxGeometry>
                </mxCell>
                <mxCell id="qx0Xr_bxVmY2tH6gNsLB-53" style="shape=partialRectangle;html=1;whiteSpace=wrap;connectable=0;fillColor=none;top=0;left=0;bottom=1;right=0;align=center;spacingLeft=6;overflow=hidden;fontSize=19;" parent="qx0Xr_bxVmY2tH6gNsLB-50" vertex="1">
                    <mxGeometry x="640" width="110" height="33" as="geometry">
                        <mxRectangle width="110" height="33" as="alternateBounds"/>
                    </mxGeometry>
                </mxCell>
                <mxCell id="qx0Xr_bxVmY2tH6gNsLB-54" value="" style="shape=tableRow;horizontal=0;startSize=0;swimlaneHead=0;swimlaneBody=0;top=0;left=0;bottom=1;right=0;collapsible=0;dropTarget=0;fillColor=none;points=[[0,0.5],[1,0.5]];portConstraint=eastwest;fontSize=19;" parent="qx0Xr_bxVmY2tH6gNsLB-1" vertex="1">
                    <mxGeometry y="474" width="750" height="30" as="geometry"/>
                </mxCell>
                <mxCell id="qx0Xr_bxVmY2tH6gNsLB-55" value="14" style="shape=partialRectangle;html=1;whiteSpace=wrap;connectable=0;fillColor=none;top=0;left=0;bottom=1;right=0;overflow=hidden;pointerEvents=1;fontSize=19;" parent="qx0Xr_bxVmY2tH6gNsLB-54" vertex="1">
                    <mxGeometry width="93" height="30" as="geometry">
                        <mxRectangle width="93" height="30" as="alternateBounds"/>
                    </mxGeometry>
                </mxCell>
                <mxCell id="qx0Xr_bxVmY2tH6gNsLB-56" value="Value 1" style="shape=partialRectangle;html=1;whiteSpace=wrap;connectable=0;fillColor=none;top=0;left=0;bottom=1;right=0;align=left;spacingLeft=6;overflow=hidden;fontSize=19;" parent="qx0Xr_bxVmY2tH6gNsLB-54" vertex="1">
                    <mxGeometry x="93" width="547" height="30" as="geometry">
                        <mxRectangle width="547" height="30" as="alternateBounds"/>
                    </mxGeometry>
                </mxCell>
                <mxCell id="qx0Xr_bxVmY2tH6gNsLB-57" style="shape=partialRectangle;html=1;whiteSpace=wrap;connectable=0;fillColor=none;top=0;left=0;bottom=1;right=0;align=center;spacingLeft=6;overflow=hidden;fontSize=19;" parent="qx0Xr_bxVmY2tH6gNsLB-54" vertex="1">
                    <mxGeometry x="640" width="110" height="30" as="geometry">
                        <mxRectangle width="110" height="30" as="alternateBounds"/>
                    </mxGeometry>
                </mxCell>
                <mxCell id="qx0Xr_bxVmY2tH6gNsLB-58" value="" style="shape=tableRow;horizontal=0;startSize=0;swimlaneHead=0;swimlaneBody=0;top=0;left=0;bottom=1;right=0;collapsible=0;dropTarget=0;fillColor=none;points=[[0,0.5],[1,0.5]];portConstraint=eastwest;fontSize=19;" parent="qx0Xr_bxVmY2tH6gNsLB-1" vertex="1">
                    <mxGeometry y="504" width="750" height="30" as="geometry"/>
                </mxCell>
                <mxCell id="qx0Xr_bxVmY2tH6gNsLB-59" value="15" style="shape=partialRectangle;html=1;whiteSpace=wrap;connectable=0;fillColor=none;top=0;left=0;bottom=1;right=0;overflow=hidden;fontSize=19;" parent="qx0Xr_bxVmY2tH6gNsLB-58" vertex="1">
                    <mxGeometry width="93" height="30" as="geometry">
                        <mxRectangle width="93" height="30" as="alternateBounds"/>
                    </mxGeometry>
                </mxCell>
                <mxCell id="qx0Xr_bxVmY2tH6gNsLB-60" value="Value 3" style="shape=partialRectangle;html=1;whiteSpace=wrap;connectable=0;fillColor=none;top=0;left=0;bottom=1;right=0;align=left;spacingLeft=6;overflow=hidden;fontSize=19;" parent="qx0Xr_bxVmY2tH6gNsLB-58" vertex="1">
                    <mxGeometry x="93" width="547" height="30" as="geometry">
                        <mxRectangle width="547" height="30" as="alternateBounds"/>
                    </mxGeometry>
                </mxCell>
                <mxCell id="qx0Xr_bxVmY2tH6gNsLB-61" style="shape=partialRectangle;html=1;whiteSpace=wrap;connectable=0;fillColor=none;top=0;left=0;bottom=1;right=0;align=center;spacingLeft=6;overflow=hidden;fontSize=19;" parent="qx0Xr_bxVmY2tH6gNsLB-58" vertex="1">
                    <mxGeometry x="640" width="110" height="30" as="geometry">
                        <mxRectangle width="110" height="30" as="alternateBounds"/>
                    </mxGeometry>
                </mxCell>
                <mxCell id="qx0Xr_bxVmY2tH6gNsLB-62" value="" style="shape=tableRow;horizontal=0;startSize=0;swimlaneHead=0;swimlaneBody=0;top=0;left=0;bottom=1;right=0;collapsible=0;dropTarget=0;fillColor=none;points=[[0,0.5],[1,0.5]];portConstraint=eastwest;fontSize=19;" parent="qx0Xr_bxVmY2tH6gNsLB-1" vertex="1">
                    <mxGeometry y="534" width="750" height="30" as="geometry"/>
                </mxCell>
                <mxCell id="qx0Xr_bxVmY2tH6gNsLB-63" value="16" style="shape=partialRectangle;html=1;whiteSpace=wrap;connectable=0;fillColor=none;top=0;left=0;bottom=1;right=0;overflow=hidden;fontSize=19;" parent="qx0Xr_bxVmY2tH6gNsLB-62" vertex="1">
                    <mxGeometry width="93" height="30" as="geometry">
                        <mxRectangle width="93" height="30" as="alternateBounds"/>
                    </mxGeometry>
                </mxCell>
                <mxCell id="qx0Xr_bxVmY2tH6gNsLB-64" value="Value 3" style="shape=partialRectangle;html=1;whiteSpace=wrap;connectable=0;fillColor=none;top=0;left=0;bottom=1;right=0;align=left;spacingLeft=6;overflow=hidden;fontSize=19;" parent="qx0Xr_bxVmY2tH6gNsLB-62" vertex="1">
                    <mxGeometry x="93" width="547" height="30" as="geometry">
                        <mxRectangle width="547" height="30" as="alternateBounds"/>
                    </mxGeometry>
                </mxCell>
                <mxCell id="qx0Xr_bxVmY2tH6gNsLB-65" style="shape=partialRectangle;html=1;whiteSpace=wrap;connectable=0;fillColor=none;top=0;left=0;bottom=1;right=0;align=center;spacingLeft=6;overflow=hidden;fontSize=19;" parent="qx0Xr_bxVmY2tH6gNsLB-62" vertex="1">
                    <mxGeometry x="640" width="110" height="30" as="geometry">
                        <mxRectangle width="110" height="30" as="alternateBounds"/>
                    </mxGeometry>
                </mxCell>
                <mxCell id="avpZE_eRP7UVYQLil29Z-1" value="" style="shape=image;verticalLabelPosition=bottom;labelBackgroundColor=default;verticalAlign=top;aspect=fixed;imageAspect=0;image=data:image/png,iVBORw0KGgoAAAANSUhEUgAAAbAAAAC8CAYAAAAZ+/vlAAAAAXNSR0IArs4c6QAAAARnQU1BAACxjwv8YQUAAAAJcEhZcwAADsMAAA7DAcdvqGQAADbySURBVHhe7Z09cuO49vbR71qsCXq8AnkF1k06mtSZOrlVdtKZQ2dOpKp/ImWdOuqkpRVYC7jV46DlvfjF+cIXAZJSSyIpnV8VZySLooAHID4O0Hw+/e9///v4v//7P6O047///a9RvQ6Darkfqls3qO7dUKf7p8Vi8cGvFUVRFGUwfPr169fH33//zW+VJv7991+jeh0G1XI/VLduUN27oU73/8f/VxRFUZRBoR2YoiiKMki0A1MURVEGiXZgiqIoyiDRDkxRzop3M7/5ZD59ujHzd3i/Nl8/wfuv9tW+8DVu5vbqOeQ39/2NNM1D5Bi6A3+q7bHpNn3agSmKoihM3zvMGO3AFOWsuTWLjw/z8bGwr5TTobqfAu3AFGXorL/aETOMmu1x82ze+M9EdUS9/srnwvE1GGeH17HHTSae9zP4bvjVKvK7ciThwdo0D4SD6E6hxpv5OtKrVttsOcnvhTrXh36r6YFrjMzDBj5dmgl+96v5uuN1G8v+gGgHpiiDxjYmk6Ux45nZwoj/0TY92AAVsI0fnb61s4MPs/38gxqX97m5efpM1/jYmtnYmM3Ds2t8kc2DefviP19OSg2TNIRTs8LrfZjVdGMeRtKY75jmXnIg3ZnNw8S8/AOfNWhbLKcr859/7BuzMS8/+YvrH7Ybsr/5z3/spwnZ9FyZ+1e6pjFcdq8L822X6zaW/WHRDkxRhkzamNx+4waons3LTxw9X90vzD188erevL7ec4N0Zf66hv//Mr/DRtQ21t8wHuYby7ctvE94/2leoDGffnHhs9svU/vfpfkBrdieae4Vh9JdsNp+p4Ko17amnK7uH223439j/QNTaP75T/hDMcX0BOx03aayPzDagSnKgHn//YtfteR2YUfE9v92NjXC8E4+xAWj8zb8ino4Zvtmm1/LcuKu9ym44M5p7iGH1L1EVltLuZxuDfYVmxfz8/3dYBLH/5hs/7VTena4bkPZHxrtwBRlwFzREHwnbhcU2tnilGFpnubv5n1+g43hdCVhHzq3ieu/yqN7CU+Fx8IOy/dJc984lO515LRtKiea7WzMw90dzoTyYT5il/Tscl2gVPaHRjswRRkyo88GA04c3jHrZ16EzwMNoGzOqDbCY/N5BP9fG4wSpdjR+jMO09fmGX9kar7kGqXbLxRyStfQhB3T3EsOqrvFanuHnzdoi9SUk4QyNxvb3YRhPt54wTOtcnoK4ePidROayv7QwNPolfaoXodDtdyPim6rKVgi0TGefaxmY/t6/DHbwofbD9vw2PfTjxWeLO/5sEN5YvVhGx739+kUrinXoM/Gs1X0XffVym8A8fXoCD6vTXM/Oaru4+nHtJW2deVE2BkVfW7T5P8s32tKj2U7+7B9VeUa+evuUfY7UtdOaAe2I6rX4VAt90N164bj6C4dWNgp/CHcsY4PPRo41nUbqNNdQ4iKoihnBO0SrF+f3IdjXfdP0A5MURTlXHifmyfsZ+rW0PbgWNf9Q7QDUxRF6Qx+5JT7t11/CPw7Mdz1d+BHWB3run/IJ4gv8mtFUQbA9fXuW7gVZcjYfopfxWAH9vfff/NbpYl///3XqF6HQbXcD/jHoR92NKycFtW9G+p01xCioiiKMki0A1MURVEGiXZgiqIoyiDRDkxRFEUZJHt0YPEztcqk5/H7RhO05qc0K6plN4iuxzPoGxaiR11d9OBT1OtdMBWE7m+UCswrW2h7GvqXrqAD85WxUsfARK1lJb0spJMOD+00/gipa+GhjV4/wQfYivHhgf4dk8LIA3v7Rr/SFXRgYqRmzDJxHnv/+YIeL/QIff6Hd43/oK3teWeAuLJuZ7Z4l2aiHf1ewBOyP40ezGa6wm2zcKDVA3gLqab9ZPzZ9LKdHTQj85ma4p7Rv3RFIURx3rQ9WDCLeDc/yWLTPKJlZzU8FRqs+dFyOYz1Mzi/fnAdhCjw6Hno5uovg//EdPNm0ExVZhMVTSAf4Wv+WGZ00ljDNN3l/ZOzPwg5Hy29jcQqMA66uv/ONg5kplfRjDVy2kTRAtLzZr6O8h7r1KBLWAY3z+aN/3zp4GADjKnEEFFETWbQdXUSr+HODXVPy+SCoxpg23L9F89uSZev6zDyk97Hddr96fcDonR1SPqk39WUHn/vnq4vj9b3f4gfn588oXg7mxbsBPwj9ulS8nmT/YB/DD+lbf/H8h+CWK/kSdKpVkXtKM9iT+Ce7hxqCd91T6i+AC3FmsJp5ZE6CbqIZl7ixOIhqo+pTvK+rS5J+UoaE/uKUwNp6AWgR/QUdatX8B7LJniP2vqCs/dGvv5F51nS63RF97qn93mqFX+ealep76Xv91P7Ot0rmzjIedOHESV8OG14gqMYu13dLwxO1EqMZ+YbXkpClhvzhtOVhPef6Pxpf9iFICltS5NEOLtHRqEQ/rJvm7QSZMYr2tHTntksDp495tYVCiZz56hlhlEQt7j6zz9WIamfFB2YTm1eeNZLVu+J4Z7Tia3RRccmXdY/7Cv7dXGfFVM/pcCtWQRrYVhWEo3Ikql/dgb3tBybGRUYgvcJzsD5DxfOdPXq2lisr79+Y/tB9TmNYEAbE7cb5e8PT/vqLkR21KQwog8fFtvk2wXZWksjvsd0/1fUKjPbN+wMcP1DprMQsugjsgb2scUGbjlpCucJ3KByeIza3n+MtL1haLZt1gevZYbtG6aebByu/mOwr8abbmveNmPz+Qu449JNiucGGtbSoAt1hsouRGFBHtBlgQHadmZ+2XsFzo3D4xvzMOJr4DHBgYTSgNTnCFi3KgxsswxL+2oH5kapdnQ0pxHqePbNjVBz3C6CBXf7vac4qNpInb/MeLbFa4dHMMDoGX4jTLYjyUAjfltp7u5Iax7tQ0MAbamdzWOecZDQgsFqyRbt8forwB27/ZR2P7HG0Omvf9tu69r8dQud2sa8/JyTxfqOsfmSLlnrd6XM+qsZPVzTrkQ4cFNTDe4J5ytz/TAKBn28szE6/KxBKSD3UAQP8lrvtBmW9pkOTBpV25Y8wAgqCcckQEMro6dWN7ydqT1jRfWL9tnZHc8ENw/PO8/ouoRmCxIG5E0d0ijjtmN4ESBhqc0mo7VUvDU1zCnnpKVtzB6x2sUDoPf5HWk2fXQ3EYURbYf19GI2GP6jEOvm5cV2aPbUliHcRl24QZAQb7b8lCLr55oZWESwuw1n2LsPghULazcJwj/v8yezbBuRGKD22Q5MbmykIfOwS+yflxFNN2nKYF5ruuvxbGU+P/mp6XRV2mYP2/BXNh22QNx0Fo4e7khy4VMK9fkYs80DTp04D0+fzaqyiOJnbaHWFLuW6fzEXtSViOPctISZPMziN3Y0Lmkc2R4DZ6HhVJEHBhvb6Y95aImDLhwE7GK416ALzBCg/KR8s+WnOHA5wWv59HlmtS0Q7bAdmYfrFUcDrsz969a3KXLoP6NoAWhn63MQEh+9/GO2rf+N3vC0VzuVHTmKBQjczLbng1BWXed/bqidyn5AowKhHeW0qO7dUKd7fgamnBTafVi/fqUoiqLEaAfWNbh1FV7sEvpSFEVRtAPrGrcT6wIeuaUoinJAcA2MXyuKMgCur3V7v3JZ2H6KX8XoJo4d0Y0Hh0O13A/dTNANqns36CYORVEU5ezQDkxRFEUZJNqBKYqiKINEOzBFURRlkOzRgYkZWtNjiNLz+H3xsSRipNbDR0VdLFpmMZLf1ATwUhE96uqIB90V2tk0XDh036FU8JSe3jzKqX/pCjowXxkrdSxyuVU8wQ0cNeK7NuxN58tgIDzOtNNIHH3x0Eavn+DDjfnp5a2ft6e0Y5cnyJ+SfqUr6MD8Q2XFzFIQU0uy+oAHoLb5h7dtzzsXTvAUZ/EdQ5uKpZmc2YACvaTAQ2q6wm2zcKBFDzycVAdP/WT82fSynR00wdP5e0X/0hWFEMUhOPZk8qaWj/ig2epsITRe9KPl8qziZ3B+/eA6nOHA0dPQzXhMthu1diXpLEryAnkcsU0HP8m7qbEWmxZxu5VZS0V7+I3wNX8saZHfiZ4MnpoLEscvM28JEzvKfme7GTL9rOSF0+7SHEULKJ8383WUpjj9DekNtbl5Nm/850sHBxtgvSBP6hdRkxl0XV2JzC8j3dMyOdNoQxvA0sf525EuX9dhW5LeX3Xa/en3A6J0dQj8Q+aQ1dTAvxj7mK74D9vZh20/PsDTgv/wYRsUe870A/+ymuL545mdG8Cns+kHvUzOs/+1nWNwbfl8XDg/fS9p8++7INaL0ziefaxmY8wb6VDKe5q3Ut5T+Pv2d+j0pEyKZUTXt7MY+9qXUVRm8F25biUdxy2zSEtOk8+DR+okpFfy4rNO7502UX1M018qh1J6E90ljS7/3QBp6AWgh6s7gNUreI9lE7xHbX3B2TqbrxfReZb0Ol3Rve7p/ZdqxZ+n2lXqe+n7/dS+TvfKJg5nZslhRAkfNpkEiunf1f2i3r1zPDPf8FISsizYXb+TG7T9YReCpLQtTRLh7AUjnr1mZ2HrHzbVkHVxtvZ5f/kZDX/qkdEuW7W3NW6UmbWUET39Xkw3782rW78gY0g7rEF7fkfHZTYK4hZkZin1k6IDU/BK49noO9o3J8agLv3iNs75a0qvlBu7ZDvzUaXArVkEa2FYVhIlyJKpF3YG97QcmxkVGIL1F2fg/IcLx/sNcn399Rvva6rPaQQD7v34fi5/f3jaV3chipklhhF9+LDYVqKJnf2/M3Xcfbqftd/fvmEjjesfMp2FkEVvsTcvCgFrYfEtS41qzF529bIG9rHFhnQ5aQrnCdxwcxiO2nhvnhmGgNtKfMoyI5drtptB11j7Bm86tkv/As7JdJPiuW0daBvSmys3pZ4oLMgDrSwwcNrOzC9bh+HcOGwtRq5ykGGr0oDU5whYtyoMOLMMS/tqB+ZGqXZ0NKcRqp855AEnXTubowV3bMB3667rfLDGsy1eOzxCc95ewSP0zcMP8xb0T7nOShrH/TzA/IabbEeSgWYWtnLe3VGZ8qwCGhxos6fgemy1xT64BQcvM7bvp4FTCHe49lPa/cR5h854/dt2W9fmr1vo1GA2Ozc4udwxNl9K716DjEtm/dWMHq5pVyIcuNmoBufEsDLXD6NgMMY7G6PDzxqUAnIPRfAgr/VOm2Fpn+nApLGzbckDjKCScEwCNIAyemp1w9uZ2jNWVL9on53d8UywfmNE37gy999ph+AyHLZIXjiEB41yPLMthO5qoFmJhAF5U4c0/ri9GV4ESPgLbffTMpUKvqYOIOUUZWYbs0esdvEA6H1+R3mZPrqbiMKItsN6ejEbDP+RfpuXF6ugPbVlaLUxvdwguHLL6aoUWT/XzMAigt1tOMM+wY7ec4S1mwRhmff5k1m2jUgMUft0EwfhF7/t8DRZwEsXvuU9H+mCYrIgPp6tovP9emF6PhCkwx35hd9TUdrEEWqEC6FpWmWjRSkf4ecVzXM6hNpZ3AYDe9jv06aSeLMBLejS5/7P8bWnU7iOfO+4ZZarey6NwRHlE/G/QZs14E+S/0xagvxS2YS6NKS3ha6nBtLSCyqbOERfOsazmdXWa4mfSWGGusIRFXLSpsCR/E4XQDq6hXSp3Pc193P8WZvv9097SEMJtVPZkUFbgMCW8MnS1setee1BTEDtVPYD1ibsvcvvlFOhundDne7ZEKJyntDuw33X3RRFUfqFdmCXAm6RhRc1O0oVRVEGhHZgl4Lb8XUpj/ZSFOXcwTUwfq0oygC4vtbt/cplYfspfhWjmzh2RDceHA7Vcj90M0E3qO7doJs4FEVRlLNDOzBFURRlkGgHpiiKogwS7cAURVGUQbJHByZmaE1PnU/P4/dFs0YxUtv9afaXh2p53kj5pWaDfSMwP2wyYbWg60E7+4QLhu5tlAmenON0Ja3r5DuMvnW/U0pbdwQdmK+MlcRHLreKRzrp8NBOYz+CxjDSUP7eVteW5yfOwXj88c1/YeDDjfnp5YEPmPKn7PL0+FPTr7QFHZi36BAzS0FMLcmC49YsWv2D2LbnnQHi04X2EUsz0Y7+DznuE7HRswq8qqYr3J4LB1oBgS+Ylt1ujD+b3ra1gyR4Mn/v6F/aohCiOPfGnkze+uMRHwBbHeGGhoh+FFseCf8Mzq8f9Iajcjh6HlIRWxNxoZVRfkUTyEf4mj+2SkWhQZimu7ynpn/E2Wk5HpOFSa0lSzrzlbxAHkdseWIHEvBZpUPyljCxc+13tpsh089K2XBZuDKIohKUnpv5OtI4Lo8G/cOyvnk2b/znvoKDADCSEyNbyWwys62rk5H5ZaRHqlXb2feZAXY+FW+7sO433cMNOrYpK6yXmd/Jpq0DUksLsUNwj9wXmw//h9hCg20RxNZiO5uy1URyXvCYf7qUfC7WFOn56XtJm3/fBbFeiV1HqlVRO8qzWIekliD4Hr7rbAwuQUtOo80zWZaILqW8p3kr5T1BbDxcmXik7sPvStn4omSbFymTqN6n5VFKo09TrH9SjySNBdsW+KwXQDpdHQVsPoL3qFnwHvPsBbX3Rr6MovMs6XW6olvd03rOuqR1yunG56c6JnXOtT2u7Oh7+DWsh/k6eErqdK9s4nBmlhxGlPBhk0mgmP5d3S/q3TvHM/MNLyUhy4Ld9Tu5QdsfdiFIStvSJBHO7pFRKFuotzVUlBmvaEdPixeTynvz6tYVCoaX56ilZSS65GZh6x821ZB1cQn3eX/5WTscbWQUxEfINFPuA4pCTKc2VTy7JkftxBjUlYe4mnN5NekveWKXbGc+OjhuzSJYC0MNJRqRJVP/7KzgaTk2MxISwfsEZ8b8hwtmuvLuyNR+FExwsc6lUYbgfKxzElUD4rIzv+3sbPLLzLb9dsKu7kJkl1oKI6bOwRluF2RDL434HtP9rC3+9g07A1yXkGkuhCz6iKyBfWyx4VlOmsJ5Ajd0HLaiNtG7p4ah2bZZH7yWiL2ZsFLBWljc/FHHEXMo639yuWa7GXSntW9+/bZ3AduyfwGHZmoA8Ny2TrcN+ufyNFSisCAP6LLAAG07M7/svQLnxuHxjXkY8TXwmGAHr+QoDFqlzkXAGlZwfs36Jbnx959qByaNKoyO5jRy9KPdPLeLYCEcG51MI1pDnT+VneLitcMjGFT0DL8RJtuRZKCRuL1h7+5Iax6FQ0MAbZydymOesT1vwdloybOQzcMP8xb0T7nOSjqAVj5nELuH/0frvAAPIOyntMuKyxIGF+vfttu6Nn/dQqcGM725wcnyjmsAJf0P1QF3zvqrGT1c065EOHBTUw3OIWFlrh9GwaCPdzZGR79nAt1R2BUo9TyCB2Jyfs3sGNodW3y2Xer3pqZMByaNqvTCSZgkARpaGT21uhHtTO0ZK6pfTM/O7ngmWL+Y3z9oFC9hQN7UIY0lbjuGFwESLtpsMlpLZVtTg5ly1lpemfvvtKtzGeZd8sJhV+h44ihBIdwq2EbzEat3PNB6n99R2UwffYgGw4i2w3p6MRsM/9G1Ny8v9ur21Jah4kb9ubFxecrVkwGyfm47ig92t+HM97i7UIfMcuI3VLzPn8yyFAVgHSdBKCg6H+tkqPPafE02POHGJvNgRu3CSd2QbuIgZBHaHpXF03RBWt7zkS4iVhYNV9H5fo0xPR8I0uGO8PPTk93EkRw+Txa3IG8PqyVtUIgXRmlxlT73f46vPZ2GC6rnqCWnOalvuDCdplU2x5TyEX5eqb+E0zw4onJDvGZusduVZ0bb4Lco3WE5N+jfop4IcE4vqGzikHzTMZ7NbJ59HvEzETnMLxyR+EmbAkehHE8JpKM7QBNbH1Zh3Y/rfaQvktS5VMPoPpK6Rtr7y9A1/GaP01Onu9qp7MhRLEBgq+pkaevX1rxeUJxE7VT2A9aF7L3L75RTobp3Q53u2RCiclpo92HLNRxFURQF0Q6sa3DbMLyo2empKIqiVNAOrGvcTqwLeOSWoijKAcE1MH6tKMoAuL4+k233itIS20/xqxjdxLEjuvHgcKiW+6GbCbpBde8G3cShKIqinB3agSmKoiiDRDswRVEUZZBoB6YoiqIMkj06MDFUa3rqfHoevy863or52oWa1/USLbNuEF2bDAuV84PuOXz8IDyhx917VCfqHkuI7hV//NzCut8ppa07gg5MbppM4iP3WcXjNYsbcfl724a96XwZDITHuXUap9KSSdxo8fjjm/8yQQsV1e6AFJ4w3wv6lbagA/NWIGJmKYipJVl93JpFq3942/a8c+EET9AW3zG0qViaydkOKI6rJTa44FU1XeH2XDjQCgj8unSQpnRK8GT+3tG/tEUhRHEIjr2SvF0FuXdWR7ih8aIfiZVHwj+D8+sHbuGoHI6ehlTGY7LDqLUrSWdRkhfI44jtM2ynBJ81NaJi0yJ+PjKbqGgPvxG+5o8lLfI7EA5w6UrNBYmTldnRtfTWM7Fb7Xe2tSFz0YpmrJHTJopKUHpu5uso77FODbqEZXDzbN74z/2G8jQCPdmsk/QBPWz+5pInaAPo3EiTShgq1ajtrPtMAZudiudcWPeb7q0GPZMoRPa+xnqZ+Z1s2jogtrTgR/Kb4HH68sh9/4fYqoNtEeRx+9vZNHosv3/kv3+0P11KPo8f4+/PT99L2mILgVMT68VpdPYXokMp72neSnlP4e+LHUJaJsUyouuLdUhqCYLv4bvOZqGU7uOUWSdaio2H08ojdR9+VzTzEtN7VwZRvU91KqXRpynWJSlfZzUieYqBz/oEahPpmeYfIA3i02w+Xd1jTYIT8LrB513Tre5pPWd90jrl9OPzUz2TOufaBHiPWgflhPUwXwdPSZ3ulU0czsySw4gSPmwy7xMzvqv7Rb1z6nhmvuGlJGRZsMR+Jzdo+8MuBElpW5okwtkLRjx7zc4c1j9sqiHr4mzt8/7ys3YIFbN5MCMYLbFVe1tDRZlZSxnR0+/FdPPevL7e80iqYAZ54jI7iZYZRkF8hMws5T6gKMR0alPFs15ygU4MSJ1O4mrOOjbpInliN25ncjpwpqsdlg/sbOBpOTYzEhDBeoszYv6DYjX1ztR0XxeMW7HOpVGG4HyscxJVA27NwrUDlt92djb5ZWbbfjthV3chsnsshRFTt9sMtwuyu5fGdY9pf9Z+f/uGjbSEJvAAj/3eYisACgHrN3HrLpb3IXvZyMsa2McWG7jlpCmcJ3CDyuExanu9k2sYAm4r8XHL7ARaZiA3bba1QUdb++bXb3sXsBX7F3BOpgYAzy254aY06JLL02WyMQ8j1gePCXbsSh2FwaTUuQhYwwrOH3+2f8lDbvz9p9qBSWNnq86POY0c/Wg3z+0iWAjHRic3JChT54Nlp7h47fAIBhX9gkfOm4cf5i1oU3MNrDRa+3mA+Q032Y4kA434bQNxd0dlyqN92NAAbel0Rdpiv9GCo5fZsbRk+34aoIVwx24/pV1WrDF0+uvfttu6Nn/dQqcGM725wUnsjmsAJV0O1QEPHztjSPT5+Oj3DKB7CrsCpZ5H8EBMzpc19AzQHmxnxrYXDevxHZPpwKSxk144CZMkQAMoC9utbkQ7U3vGlsMvpmdndzwTrF/M7xtX5v477RBchkNHyQuH8KCxjGe2hdBdDTRbkDAgb+qQRnn9zBsZAiQstdlkylQq9Zoa5pROyuxIWl7dm0es3vFA631+R5pNH32IBsOItsN6ejEbDP/RtTcvL/bq9tRiWCKhSRdubFyecuXXd3CmWgdp53Y4wwaCcHaOM97j7j49B5YTv6Hiff5klqUoAOs5CUI00flYJ0O91+ZrsuEJNzaZBzNqF+bphnQTByGLsPaoLKKmC9Lyno90EbGyaLiKzvdrjOn5QJAOd4Sfn57SxoNQI1xMTdMqGy1K+Qg/r2ie0yGzIC6f2e/TRoh4AZYWcelz/+f42tNpuHB73DLrRkvCaREckZ6Iz4tb7HY6Z/Ic/BalO9S/QZcW5SfAOb0i0Jt0orzW6Yl5TzZxuDrgzrFHofy6ANLTHaCNrQ+rsO7H9R7rXNwoxHUu1TK6j6SuURn4y9A1XP3vgDrd1U5lRwZtAQJbYu2oF0JZrz2Iy6idyn7A+pC9d/mdcipU926o0z0bQlTOE9p9uO+6m6IoSr/QDuxSwG3K8KJmR6miKMqA0A7sUoB/72Wn4ZfzaC9FUc4dXAPj14qiDIDra9xmqSgXg+2n+FWMbuLYEd14cDhUy/3QzQTdoLp3g27iUBRFUc4O7cAURVGUQaIdmKIoijJItANTFEVRBkmPOzAxbmt6un16Hr+vGBkKYvI2ZLO8S8hjHxFdm4wEL4XAMLFYFz3oetDn5+r1Brq/UaqK6WeX9C9dSQcWOniGjd+uDWLd+f43KnU5crkdAtJ5hod2Gn9E4hKLhzZ6/QQfOsxPkA+9pJQDUHjKfOf0K101M7BjPRnaW4G4J1MzYp5JVh+3ZtHqH962Pe+IiE/Xlp6ePhlMB9wvwNkAzTqnK9w2Cwda9ICPlmraT2o8pZR9Ad8uftkr+peufAc2HpO9Q60tRjr7kLAKzLBGbAdhG3P4LGl8xCE49mTythjkElqdxYXGi35UXp7t/QzOrx/E+1khHXuGiMTWRHx2ZDZRSStcP3zNH4umohdM012aPjnbmpCT5/FoeKuW2EX2O9vAkBlnRTPWyGkTzeJJz5v5Osp7rFODLmEZ3DybN/7zpYODDbBDESNbETWZQdfVSbyGOzfUPS2TC45qgNWO850jXb6uw7Y3vY/rtPvT7wdE6eqQkqUF2TnIY/TF5kAe3y+P6Zf38nn8SH7/eRWxyXCP7ZdH+/s/xNdguwl5rP92Ni38lrcQoEs1pa2aVkpbPu2xXvxbYlOQ5qGYJ0qLWHo4q4Iwj/BdZ39w2jyeikhLsRNxWnmkroAuopmXmG1RRKuonqQ6leptSZekfCWNTudugDT0AtDD1VHA6hW8x7IJ3qO2vuDsvZGvf9F5lvQ6XdG97ul9nmrFn6faVep76fv91L5O92IIccSzpOwsbP3Dzq2sDDNxapawILjVRt15EWeayWFECR82mQSK6d/V/aLeqXU8M9/wUj5tWevtd3Kdtj/sQpCUtqVJIpxlZBQK4S/7tq3RocxEJU/0tHgxqbw3r25doWDSeMo8dsgoiFuQyaTUG5q1T6c2LzzrJXfmxLDT6SRu46xjky5Sz9m92pmCKgVuzSJYC8OyqnH9zdY/O4N7Wo7NjAoMwfsEZ+D8hwtnuvIu1VhfxUwU63MawYA2Jm43yt8fnvY1a2C2MtruGCrZ0zyugmLhHrKzLTq71FIYMXXVzXC7ILt76Sz2CCtk7fe3b9jp4DqLTJtDp9g2yBrYxxYbuOWkKZwncIPK4TFqe73DahgybZuko+WxQ8h9mm1g0GnWvsGbji3Sv4CjMd2keG7JpTalQZdcPVfqicKCPKDLAgO07cz8svcKnBuHxzfmYcTXwGOCAwmlAanPEbBuVRjYZhmW9jUdmIVHnJuHH+Yt6J9ynZXc7O29pmQ0bEdhcxoJ+xldnttFsLCPHetuw4K6tI1nW7x2eAQDmZb4DSrZjiQDjfhtpbm7Iw14tA8NAbSldjaPacHOuwXHz+ORYFt9GtCEcMduP6XdT6wxdPrr37bbujZ/3UKnBrP/ucFJ7I6x+ZIuOw/KLp31VzN6uKZdiXDgpqYanEPCylw/jIJBH+9sjA4/a1AKyD0UwYO81jtthqV9fQdmm4H777Szbhl2wzx7ktAXNDLxDKoQ8kqgxtu2WQ8wUkvCPgnQoMsorVXDYmdqz3hD+M0B2dmd5KV2w0p7aLYgYUDe1CGNMm47hhcBEpbabDIaSMVbU8Oc0lEej4JtzB6xOsQDk/f5HWk2fXQ3EYURbYf19GI2GP6j+rZ5ebE1zp7aMoTbqAs3CK6e58pPKbJ+rpmBRQS723CGfawd0GcOazcJwj/v8yezbBuRGKL2pU0c4aIdLuzh4nWw6CobFNyRLMiGnxcXAf0ie/WcdIFd3vORLly68+ia49kqOt+vS6bnA0E63JHkh8lu4kiOYA0UxPOf2TzS5ph4EwAttNLn/s/xtadTuI5877h5PBWxloTTIjgiPRGfF9qsAX8SnTN5DnSluhzq36BLi/I7NZCWXlDZxCH60jGezay2Xkv8TAoz1BWOqJCTex2O5He6ANLRLaRLpX2paTfiz9p8v3/aQxpKqJ3KjhzFAgS2ak+Wtp5szesFxUnUTmU/YG3C3rv8TjkVqns31OneEEJUTgHtPtxl/VBRFEXRDqxrcOsqvKjZgakoiqJU0A6sa9xOrA4fhaUoijJAcA2MXyuKMgCur3V7v3JZ2H6KX8XoJo4d0Y0Hh0O13A/dTNANqns36CYORVEU5ezQDkxRFEUZJNqBKYqiKINEOzBFURRlkPS4AxPTtaanzqfn8fuig68Ytu3+NPvLQ7WMkfymJoCXSmB+WKwjHnRXaGfTcOHQfYdSwVN6Wmh7GvqXrqQDC904w0Zp14aq7nz/G5W6HLnpDoFT6AVIJx0eba89MBJHXzy00esn+HBjfnp54AOmHIJdniB/SvqVrpoZ2LGeSuwtR8TMUhBTS7IUuTWLVv/At+15x+YET3EW3zG0qViayWA6+naglxR4SE1XuG0WDrTOAb+uM8vr2TD+bHrZzg6a4On8vaJ/6cp3YOMx2UjU2m+kswIJq8BsYsS2E7aRhc+SxkeciGPvJ2/J8ogPtK3OSkKDRz8qL89efgbn1w/i5Rpy7BgiOrJeFcSmRdxuZdZS0QR+I3zNH0ta5HcgHODSlZoLEsfX0lvCxI6y39luhkw/K3nhtLs0R7N4yufNfB2lKU5/Q3pDbW6ezRv/+dLBwQYY1onBrIiazKDr6kpkfhnpnpbJmUYb2gCWPs7fjnT5ug7bkvT+qtPuT78fEKWrQ2JLC36U/lhsI8SuQh6xL9YI8sh+eS+fi81Een4VsV1wj/YX+xX/h/gabL8g9hnb2bTwW95OgC7VlLZqWilt+bR3oxd/X2wNUq2K2tH1xaIktR7B9/BdZ5dQSvcJtBR7DZcHj9QVSK/kxWed3jttonqSpr9UDqX0JrpLGl3+uwHS0AtAD1d3AKtX8B7LJniP2vqCs3U2Xy+i8yzpdbqie93T+y/Vij9PtavU99L3+6l9ne7FEOKIZ0nZWcX6h50rWBmcg7KEBcEVN+rOizgzSw4jSviwyYxQzAWv7hf1LqHjmfmGl/Jpy9pqv5MbtP1hF4KktC1NEuGs5dh6ITLaZav2tsaNMuMV7ejp92K6eW9e3fpFwYj0xFqmjIK4BZlZSr2hWft0an+DZ6PkDJ4Yg7r0iws4568pvVJu7JLtzEeVArdmEayFYVlJlCBLpl7YGdzTcmxmVGAI1l+cgfMfLpzpyjskY3399Rvva6rPaQQD7v34fi5/f3ja16yB2cpou2OoZE/zuApSIxGzs/06u+FSGDF1dM5wuyBbfWnE9wgrZG3+t2/YGeA6i0ybITSyM0fWC5A1sI8tNqTLSVM4T+CGm8Nw1MZ7l9YwNNs268fVMoZcrtluBl1j7Ru86dgu/Qs4J9NNiue2daBtSG+u3JR6orAgD7SywMBpOzO/bB2Gc+Ow9cY8jPgaeExwIKE0IPU5AtatCgPOLMPSvqYDs/CIc/Pww7wF7W2u8ZWbvb2nlYyG7ShsTiNhP0PJc7sIFvaxo9htWFCXtvFsi9cOj2Ag046j6hXiN8JkO5IMNLOwlfPujrTmWQU0ONBmT1eUZ+yDW3BwLdm+nwY0Idzh2k9p9xPnHTrj9W/bbV2bv26hU4PZ7Nzg5HLH2HwpvXsNMi6Z9VczerimXYlw4GajGpwTw8pcP4yCwRjvbIwOP2tQCsg9FMGDvNY7bYalfX0HZpuB+++0420ZdsM8e5KQFDQy8QyqEIpKoEbVtlkPMFJLwj4J0NDKKK1Vw2Jnas94Q/jNAdnZneSldgNGW46rVwjNSiQMyJs6pPHH7c3wIkDCX5tNRmup4GvqAFJOoaVtzB6xOsQDk/f5HeVl+uhuIgoj2g7r6cVsMPxH+m1eXqyC9tTiND6hKb3cILhyy+mqFFk/18zAIoLdbTjDPsGO3nOEtZsEYZn3+ZNZto1IDFH70qaEcNEOF/Zw8TpYdJWNA+5IFmTDz4uLgH6RvXpOusAu7/lIFy7deXTN8WwVne/XJdPzgSAd7kjyw3SjVy59YZ4sboOBPez3aVNJvNmAFnTpc//n+NrTKVxHvndKLQmXxuCI8on436DNGvAnyX8mLUF+qWxCXRrS20LXUwNp6QWVTRyiLx3j2cxq67XEz6QwQ13hiAo5udfhSH6nCyAd3UK6VO77mvs5/qzN9/unPaShhNqp7MigLUBgS/hkaevj1rz2ICagdir7AWsT9t7ld8qpUN27oU73hhCick7Q7sN9190URVH6hXZglwJukYUXNTs9FUVRBoR2YJeC2/HV9SO3FEVRDgOugfFrRVEGwPV1i124inJG2H6KX8XoJo4d0Y0Hh0O13A/dTNANqns36CYORVEU5ezQDkxRFEUZJNqBKYqiKINEOzBFURRlkPS4AxPTtaanzqfn8fuiKaQYtu3+NPv+cAl5vGSk/FKzwb4RmB82mbBa0PWgnX3ChUP3N0oFT89poe1p6F+6kg4sdOMMG79dG8S68/1vVOpy5KY7BKTzDA/tNPbjFHUvIHEOxkMb193Ahxvz08sDHzDlEOzyBPlT0q901czAjvVUYm8FImaWgphaktXHrVm0+oe3bc87IuLThfYRSzMZTAfcV477RGz0rAKvqukKt+fCgRY94AumZbcb48+ml+3soAmezt8r+peufAc2HpONRK0tRjr7kHAHjIBHbDthG3P4LGkUxCE49n7yFiOP+KDZ6kg6NF70o+XyiPtncH794FquIceeoRuxNREXWhnlV9IK1w9f88eiqegF03SXptT0jzh5Ho/NkesefFcsYWLn2u9sN0Omn5Wy4bJwZRBFCyg9N/N1pHFcHg36h2V982ze+M99BQcBYCQnBrOS2WRmW1cnI/PLSI9Uq7az7zMELH2cvx3p8nUd1v/0Pq7T7k+/HxClq0NiSwt+lP5YbCPErkIesS/WCPLIfnkvn4vNRHp+FbFdcI/2FzsR/4f4Gmy/IPYZ29m08FveToAu1ZS2alopbfm0x3oldh1pHop5orSIdUhqCYLv4bvOxuC0eTwVndQ9sfFwZeKROgm/K2Xji5Leu7KO6mNaHqU0+jTF+if1SNLo8hQDn/UCSKero4DNR/AeNQveY569oPbeyJdRdJ4lvU5XdK97WtdTrfjzVLtKPSx9v5/a1+leDCGOeJaUHQmvf9jxrZXBOShLWBBccaPuvIgzs+QwooQPm8wIxVzw6n5R7xI6nplveCmftqyt9ju5QdsfdiFIStvSJBHOMjIKZQv1toaKMhOVPNHT4sWk8t68unWFguHlKfN4Qo5d90qMgvgImWZK/aTowHRqU8Wza3LUToxBXXmI2ziXV5P+kid2yXbmo4Pj1iyCtTDUUKIRWTL1z87gnpZjMyMhEbxPcGbMf7hwpivvkIz16NdvbD+onqWRBbiX4naj/P3haV+zBmYro+2OoZI9zeMqKHb4ITvbr7MbLoURU4fiDLcLsruXzmKPsELWfn/7hp0Orn/ItBlCI7sga2AfW2x4lpOmcJ7ADR2HrahN9O6pYci0bZKOlseTcuS6V4BcrtluBt1p7Ru8udmW/Qs4NFNjgOe2dbpt0D+Xp6EShQV5QJcFBmjbmfll7xU4Nw6Pb8zDiK+BxwQ7eKUBqWcRsG5VGNhmGZb2NR2YhUeCm4cf5i1oI3INhtyE7b2mZJRqR2FzGqH6UXWe20Ww4I6N227Dgrq0jWdbvHZ4BAOZlvgNKtmOJAONxG2lubsjDXgUDg0BtHF2No9pwfa8BcfP44k4Vt2D2D38P1p/BXgAYT+lXVZcljC4WP+23da1+esWOjWY6c0NTpZ3XAMo6X+oDrhz1l/N6OGadiXCgZuaanAOCStz/TAKBn28szE6/KxBKSB1O4IHX6132gxL+/oOzN6e999pZ90y7IZ59iShL7j54xlUIeSVQI23bUseYKSWhGMSoEGXUVqrG97O1J7xhvCL9tnZneSldtNAe2gUL2FA3tQhjSVuO4YXARIu2mwyGkjFW1ODmdJRHk/DkeqebTQfsdrFA6D3+R2VzfTR3awURrQd1tOL2WD4j669eXmxV7enFsMFCU36c8Pj8pSrJwNk/VwzA4sIdrfhzPe4u1DPFtZuEoR/3udPZtk2UjBE7UsL6eGiHS7s4aJysOgqGxTckSzIhp8XFwH94nf1nHThW97zkS5cuvPomuPZKjrfr0um5wNBOtyR5IfJbuJIjmANFMTzn9k80gaFeHGeFlrpc//n+NrTKVxHvnfcPJ6KLuue0zw4onJDvGa0WQP+JOWZ0Tb4LUp3WM4N+reoJwKc0wsqmzgk33SMZzObZ59H/ExEDvMLRyR+cq/DUSjHUwLp6BbSpdK+RNok9Sz6rM33+6c9pKGE2qnsyFEsQGAL9WRp68nWvF5QnETtVPYD1ibsvcvvlFOhundDne4NIUTlFNDuw13WDxVFURTtwLoGt67Ci5odmIqiKEoF7cC6xu3E6vBRWIqiKAME18D4taIoA+D6usUuXEU5I2w/xa9idBPHjujGg8OhWu6HbiboBtW9G3QTh6IoinJ2aAemKIqiDBLtwBRFUZRBoh2YoiiKMkh63IGJ6VrTU+fT8/h90VlXDNt2f5r95aFadoPompoNKpcB3Xf4SEN4Sk/x/js1/UtX0oGFbpxho7RrQ1V3vv+NiuVI5HI7BE6hFyCddHi0vfZQOJWWTOIcjEelQiptQAsV1e7A7PIE+VPSr3TVzMCO9VRibzkiZpaCmFqSpcitWbT6B75tzzs2J3iKs/iOoU3F0kwG09HvynG1xAYXvKqmK9yeCwda9IBf19lqqgyH4On8vaJ/6cp3YOMx2TvU2m+kswIJd8AIeMR2ELaRhc+SRkGciGNPJm+L8YgPtK2OpEODRz/iK4+4fwbn1w8Q5Rpy7Bi6ObJeFcSmRdxuZTZR0QR+I3zNH0ta5HcgHODSlZoLEuejpbeeiZ1rv7OtDZmLVjRjjZw2UbSA0nMzX0d5j3Vq0CUsg5tn88Z/7jeUpxHoyWadpA/oYfM3lzzBvUnnRppUwlCpRm1n3WcMWO043znRMKz/6f1Vp+Gffj8gSleHlCwtyM5BbCTkEftijSCP7Jf38rnYP6TnVxHbBfdof7HA8H+Ir8H2C2JrsZ1NC7/l7QToUk1pq6aV0pZPezd68ffF1iDVqqgdXV+sQ1JLEHwP33V2CaV0n5GWYuPhtPJInYTfFc28xPTelUFUH1OdSmn0aYp1ScpX0ujyFAOf9QnUJtIzzT9AGsSn2Xy6useaBCfgdYPPu6Z73dO6nmrGn6caVuph6fv9LIM63YshxBHPkrIj4fUPO761MjgHZQkLgltt1J0XcWaWHEaU8GGTSaCY/l3dL+pdQscz8w0v5dOWtdV+Jzdo+8MuBElpW5okwlnLsfVCNg9mBKMitmpva6goM17Rjp5+L6ab9+b19Z5HUgUzyHPUMsMoiI+QmaXUT4oOTKc2VTzrJRfoxIDU6SRu46xjky6SJ3bjdianA2e62iGsjw+1HpsZCYhgvcUZMf9BQaYr75CM9ejXb7yvqZ6lkQW4l+L7ufz94ZVBzRrYrVnY7hhusqd53FqJhXvIzrbo7FJrWwjbSKWuuhluF2SrL434HuGFrM3/9g07AwmB4AFe/jtzZL0AWQP72GIDt5w0hfMEblA5PEZtr3dpDUOzbbM+eC0zkJs229qgO619gzc327J/Aedkagzw3LZOtw265PJ0mWzMw4j1wWOCHbvSEqlnEbBuVRhwZhlWGdR0YBYeCW4efpi3oI3INRhyE7b3tJJRqh2FzmmE6kfVeW4XwYI7Nm67DQvq0jaebfHa4REMZNpxVL1CZNZR6Egy0IjfVs67O9KaR/uwoQHa0umK8oz9RgsGqyXb99PAKYQ7dvsp7bJijaHTX/+23da1+esWOjWY6c0NTmJ3XAMo6XKoDnj42NlDos/Hh58tKA1I3Y7gwVfrnYPDKoP6DszenvffacfbMuyGefYkISm4+eMZVCEUlUCNqm1LHiAkloRjEqChlQX0Vje8nak9YwvlF+2zszvJS+2mgbYcV68Qmi1IGJA3dUijvH7mjQwBEpbabDJaSwVfU8Occk5aXt2bR6x28QDofX5Hmk0f3c1KYUTbYT29mA2G/+jam5cXe3V7alaEDE26cMPj8pQrv74jYagipJ3beQybYMLZOc54dx+UKgGs4SQIy7zPn8yybaRgiGVQWkgPF+3sqBwX0uwt6xdlZeOAO8IFW0v4eXER0C9+V8+RBcd0AZKPdOHSnUfXHM9W0fl+XTI9HwjS4Y4kP0w3euXSl1kQl8/s92kjRLwJgBZ06XP/5/ja0ylcR753jloSTovgiPREfF5oswb8SXTO5Dn4LUp3qH+DLi3KT4BzekWgd7ippU5PzHuyicPVAXeOPQrl1wWQnm4hfSr3faRRUs8y+tZ/v39lAGkooXYqOzJoCxDYtmxHvRDKeu1BTEDtVPYD1ibsvcvvlFOhundDne4NIUTlnKDdh/uuuymKovQL7cAuBdwiCy8K61eKoigDQzuwSwH+vZedhnf/yC1FUZTDgGtg/FpRlAFwfY3bLBXlYrD9FL+K0U0cO6IbDw6Harkfqls3qO7dUKe7hhAVRVGUQaIdmKIoijJItANTFEVRBol2YIqiKMog0Q5MURRFGSDG/H9yUPeuZw62cQAAAABJRU5ErkJggg==;" vertex="1" parent="1">
                    <mxGeometry x="250" y="670" width="432" height="188" as="geometry"/>
                </mxCell>
            </root>
        </mxGraphModel>
    </diagram>
</mxfile>